<svg width="800" height="800" viewBox="0 0 800 800" fill="none" xmlns="http://www.w3.org/2000/svg">
<g clip-path="url(#clip0_189_17)">
<path fill-rule="evenodd" clip-rule="evenodd" d="M680 720C657.96 720 640 702.04 640 680C640 657.96 657.96 640 680 640C702.04 640 720 657.96 720 680C720 702.04 702.04 720 680 720ZM289.8 453.643C226.84 348.283 346.88 226.005 453.64 289.805C491.88 312.685 512.52 353.6 512.52 392.48C512.52 511.28 353.08 559.483 289.8 453.643ZM120 720C97.96 720 80 702.04 80 680C80 657.96 97.96 640 120 640C142.04 640 160 657.96 160 680C160 702.04 142.04 720 120 720ZM120 160C97.96 160 80 142.04 80 120C80 97.96 97.96 80 120 80C142.04 80 160 97.96 160 120C160 142.04 142.04 160 120 160ZM680 80C702.04 80 720 97.96 720 120C720 142.04 702.04 160 680 160C657.96 160 640 142.04 640 120C640 97.96 657.96 80 680 80ZM680 560C661.52 560 644.2 564.522 628.56 572.002L559.24 502.676C598.84 442.836 606.08 363.041 564.52 292.041L628.56 227.998C644.2 235.478 661.52 240 680 240C746.28 240 800 186.28 800 120C800 53.72 746.28 0 680 0C613.72 0 560 53.72 560 120C560 138.48 564.52 155.796 572 171.436L511.16 232.275C440.4 179.795 350.12 180.882 282.32 225.762L228 171.436C235.48 155.796 240 138.48 240 120C240 53.72 186.28 0 120 0C53.72 0 0 53.72 0 120C0 186.28 53.72 240 120 240C138.48 240 155.8 235.478 171.44 227.998L225.76 282.324C180.88 350.084 179.76 440.402 232.28 511.162L171.44 572.002C155.8 564.522 138.48 560 120 560C53.72 560 0 613.72 0 680C0 746.28 53.72 800 120 800C186.28 800 240 746.28 240 680C240 661.52 235.48 644.204 228 628.564L292.04 564.521C362.76 605.921 442.6 598.998 502.68 559.238L572 628.564C564.52 644.204 560 661.52 560 680C560 746.28 613.72 800 680 800C746.28 800 800 746.28 800 680C800 613.72 746.28 560 680 560Z" fill="url(#paint0_linear_189_17)"/>
</g>
<defs>
<linearGradient id="paint0_linear_189_17" x1="0" y1="400" x2="800" y2="400" gradientUnits="userSpaceOnUse">
<stop stop-color="#2954B7"/>
<stop offset="1" stop-color="#DB403F"/>
</linearGradient>
<clipPath id="clip0_189_17">
<rect width="800" height="800" fill="white"/>
</clipPath>
</defs>
</svg>
