<svg width="800" height="800" viewBox="0 0 800 800" fill="none" xmlns="http://www.w3.org/2000/svg">
<path d="M557.3 658.397L577.146 655.916L577.146 655.916L557.3 658.397ZM535.95 487.597L555.796 485.116L555.796 485.115L535.95 487.597ZM264.051 487.597L283.896 490.077L283.896 490.077L264.051 487.597ZM242.701 658.397L222.855 655.916L222.855 655.916L242.701 658.397ZM133.334 486.667C144.379 486.667 153.334 477.712 153.334 466.667C153.334 455.621 144.379 446.667 133.334 446.667V486.667ZM57.3825 522.373L77.1104 525.661L77.1104 525.661L57.3825 522.373ZM46.2712 589.04L26.5433 585.752L26.5433 585.752L46.2712 589.04ZM233.333 686.667C244.379 686.667 253.333 677.712 253.333 666.667C253.333 655.621 244.379 646.667 233.333 646.667V686.667ZM666.667 446.667C655.621 446.667 646.667 455.621 646.667 466.667C646.667 477.712 655.621 486.667 666.667 486.667V446.667ZM742.617 522.373L722.889 525.661L722.889 525.662L742.617 522.373ZM753.73 589.04L773.458 585.753L773.458 585.751L753.73 589.04ZM566.667 646.667C555.621 646.667 546.667 655.621 546.667 666.667C546.667 677.712 555.621 686.667 566.667 686.667V646.667ZM557.3 658.397L577.146 655.916L555.796 485.116L535.95 487.597L516.105 490.077L537.455 660.877L557.3 658.397ZM535.95 487.597L555.796 485.115C548.288 425.064 497.24 380 436.723 380V400V420C477.067 420 511.099 450.042 516.105 490.078L535.95 487.597ZM363.277 400V380C302.76 380 251.711 425.064 244.205 485.116L264.051 487.597L283.896 490.077C288.9 450.042 322.933 420 363.277 420V400ZM264.051 487.597L244.205 485.116L222.855 655.916L242.701 658.397L262.546 660.877L283.896 490.077L264.051 487.597ZM242.701 658.397L222.855 655.916C216.389 707.643 256.722 753.333 308.852 753.333V733.333V713.333C280.783 713.333 259.064 688.731 262.546 660.877L242.701 658.397ZM491.147 733.333V753.333C543.277 753.333 583.611 707.643 577.146 655.916L557.3 658.397L537.455 660.877C540.936 688.73 519.217 713.333 491.147 713.333V733.333ZM500 166.667H480C480 210.849 444.183 246.667 400 246.667V266.667V286.667C466.274 286.667 520 232.941 520 166.667H500ZM400 266.667V246.667C355.817 246.667 320 210.849 320 166.667H300H280C280 232.941 333.726 286.667 400 286.667V266.667ZM300 166.667H320C320 122.484 355.817 86.6666 400 86.6666V66.6666V46.6666C333.726 46.6666 280 100.392 280 166.667H300ZM400 66.6666V86.6666C444.183 86.6666 480 122.484 480 166.667H500H520C520 100.392 466.274 46.6666 400 46.6666V66.6666ZM200 300H180C180 325.773 159.107 346.667 133.334 346.667V366.667V386.667C181.198 386.667 220 347.865 220 300H200ZM133.334 366.667V346.667C107.56 346.667 86.6668 325.773 86.6668 300H66.6668H46.6668C46.6668 347.865 85.4688 386.667 133.334 386.667V366.667ZM66.6668 300H86.6668C86.6668 274.227 107.56 253.333 133.334 253.333V233.333V213.333C85.4688 213.333 46.6668 252.135 46.6668 300H66.6668ZM133.334 233.333V253.333C159.107 253.333 180 274.227 180 300H200H220C220 252.135 181.198 213.333 133.334 213.333V233.333ZM733.333 300H713.333C713.333 325.773 692.44 346.667 666.667 346.667V366.667V386.667C714.531 386.667 753.333 347.865 753.333 300H733.333ZM666.667 366.667V346.667C640.894 346.667 620 325.773 620 300H600H580C580 347.865 618.802 386.667 666.667 386.667V366.667ZM600 300H620C620 274.227 640.894 253.333 666.667 253.333V233.333V213.333C618.802 213.333 580 252.135 580 300H600ZM666.667 233.333V253.333C692.44 253.333 713.333 274.227 713.333 300H733.333H753.333C753.333 252.135 714.531 213.333 666.667 213.333V233.333ZM133.334 466.667V446.667H123.142V466.667V486.667H133.334V466.667ZM123.142 466.667V446.667C80.7762 446.667 44.6196 477.295 37.6546 519.085L57.3825 522.373L77.1104 525.661C80.8608 503.159 100.329 486.667 123.142 486.667V466.667ZM57.3825 522.373L37.6546 519.085L26.5433 585.752L46.2712 589.04L65.999 592.328L77.1104 525.661L57.3825 522.373ZM46.2712 589.04L26.5433 585.752C17.7393 638.579 58.4761 686.667 112.031 686.667V666.667V646.667C83.1936 646.667 61.2584 620.774 65.9991 592.328L46.2712 589.04ZM112.031 666.667V686.667H233.333V666.667V646.667H112.031V666.667ZM666.667 466.667V486.667H676.857V466.667V446.667H666.667V466.667ZM676.857 466.667V486.667C699.671 486.667 719.139 503.159 722.889 525.661L742.617 522.373L762.345 519.086C755.381 477.294 719.223 446.667 676.857 446.667V466.667ZM742.617 522.373L722.889 525.662L734.002 592.329L753.73 589.04L773.458 585.751L762.345 519.085L742.617 522.373ZM753.73 589.04L734.002 592.327C738.742 620.776 716.809 646.667 687.974 646.667V666.667V686.667C741.532 686.667 782.259 638.577 773.458 585.753L753.73 589.04ZM687.974 666.667V646.667C687.898 646.667 687.822 646.667 687.747 646.667C687.671 646.667 687.595 646.667 687.519 646.667C687.444 646.667 687.368 646.667 687.292 646.667C687.216 646.667 687.14 646.667 687.065 646.667C686.989 646.667 686.913 646.667 686.837 646.667C686.761 646.667 686.685 646.667 686.609 646.667C686.533 646.667 686.457 646.667 686.381 646.667C686.305 646.667 686.229 646.667 686.153 646.667C686.077 646.667 686.001 646.667 685.925 646.667C685.849 646.667 685.772 646.667 685.696 646.667C685.62 646.667 685.544 646.667 685.468 646.667C685.391 646.667 685.315 646.667 685.239 646.667C685.163 646.667 685.086 646.667 685.01 646.667C684.934 646.667 684.857 646.667 684.781 646.667C684.704 646.667 684.628 646.667 684.552 646.667C684.475 646.667 684.399 646.667 684.322 646.667C684.246 646.667 684.169 646.667 684.093 646.667C684.016 646.667 683.939 646.667 683.863 646.667C683.786 646.667 683.71 646.667 683.633 646.667C683.556 646.667 683.48 646.667 683.403 646.667C683.326 646.667 683.25 646.667 683.173 646.667C683.096 646.667 683.019 646.667 682.942 646.667C682.866 646.667 682.789 646.667 682.712 646.667C682.635 646.667 682.558 646.667 682.481 646.667C682.404 646.667 682.327 646.667 682.251 646.667C682.174 646.667 682.097 646.667 682.02 646.667C681.943 646.667 681.866 646.667 681.789 646.667C681.711 646.667 681.634 646.667 681.557 646.667C681.48 646.667 681.403 646.667 681.326 646.667C681.249 646.667 681.172 646.667 681.094 646.667C681.017 646.667 680.94 646.667 680.863 646.667C680.785 646.667 680.708 646.667 680.631 646.667C680.554 646.667 680.476 646.667 680.399 646.667C680.322 646.667 680.244 646.667 680.167 646.667C680.089 646.667 680.012 646.667 679.935 646.667C679.857 646.667 679.78 646.667 679.702 646.667C679.625 646.667 679.547 646.667 679.47 646.667C679.392 646.667 679.315 646.667 679.237 646.667C679.159 646.667 679.082 646.667 679.004 646.667C678.926 646.667 678.849 646.667 678.771 646.667C678.693 646.667 678.616 646.667 678.538 646.667C678.46 646.667 678.383 646.667 678.305 646.667C678.227 646.667 678.149 646.667 678.071 646.667C677.994 646.667 677.916 646.667 677.838 646.667C677.76 646.667 677.682 646.667 677.604 646.667C677.526 646.667 677.448 646.667 677.371 646.667C677.293 646.667 677.215 646.667 677.137 646.667C677.059 646.667 676.981 646.667 676.903 646.667C676.825 646.667 676.747 646.667 676.668 646.667C676.59 646.667 676.512 646.667 676.434 646.667C676.356 646.667 676.278 646.667 676.2 646.667C676.122 646.667 676.043 646.667 675.965 646.667C675.887 646.667 675.809 646.667 675.73 646.667C675.652 646.667 675.574 646.667 675.496 646.667C675.417 646.667 675.339 646.667 675.261 646.667C675.182 646.667 675.104 646.667 675.026 646.667C674.947 646.667 674.869 646.667 674.79 646.667C674.712 646.667 674.634 646.667 674.555 646.667C674.477 646.667 674.398 646.667 674.32 646.667C674.241 646.667 674.163 646.667 674.084 646.667C674.006 646.667 673.927 646.667 673.848 646.667C673.77 646.667 673.691 646.667 673.613 646.667C673.534 646.667 673.455 646.667 673.377 646.667C673.298 646.667 673.219 646.667 673.141 646.667C673.062 646.667 672.983 646.667 672.904 646.667C672.826 646.667 672.747 646.667 672.668 646.667C672.589 646.667 672.511 646.667 672.432 646.667C672.353 646.667 672.274 646.667 672.195 646.667C672.116 646.667 672.037 646.667 671.959 646.667C671.88 646.667 671.801 646.667 671.722 646.667C671.643 646.667 671.564 646.667 671.485 646.667C671.406 646.667 671.327 646.667 671.248 646.667C671.169 646.667 671.09 646.667 671.011 646.667C670.932 646.667 670.853 646.667 670.774 646.667C670.695 646.667 670.615 646.667 670.536 646.667C670.457 646.667 670.378 646.667 670.299 646.667C670.22 646.667 670.14 646.667 670.061 646.667C669.982 646.667 669.903 646.667 669.824 646.667C669.744 646.667 669.665 646.667 669.586 646.667C669.507 646.667 669.427 646.667 669.348 646.667C669.269 646.667 669.189 646.667 669.11 646.667C669.031 646.667 668.951 646.667 668.872 646.667C668.792 646.667 668.713 646.667 668.634 646.667C668.554 646.667 668.475 646.667 668.395 646.667C668.316 646.667 668.236 646.667 668.157 646.667C668.077 646.667 667.998 646.667 667.918 646.667C667.839 646.667 667.759 646.667 667.68 646.667C667.6 646.667 667.521 646.667 667.441 646.667C667.361 646.667 667.282 646.667 667.202 646.667C667.123 646.667 667.043 646.667 666.963 646.667C666.884 646.667 666.804 646.667 666.724 646.667C666.645 646.667 666.565 646.667 666.485 646.667C666.405 646.667 666.326 646.667 666.246 646.667C666.166 646.667 666.086 646.667 666.007 646.667C665.927 646.667 665.847 646.667 665.767 646.667C665.687 646.667 665.607 646.667 665.528 646.667C665.448 646.667 665.368 646.667 665.288 646.667C665.208 646.667 665.128 646.667 665.048 646.667C664.968 646.667 664.888 646.667 664.809 646.667C664.729 646.667 664.649 646.667 664.569 646.667C664.489 646.667 664.409 646.667 664.329 646.667C664.249 646.667 664.169 646.667 664.089 646.667C664.009 646.667 663.928 646.667 663.848 646.667C663.768 646.667 663.688 646.667 663.608 646.667C663.528 646.667 663.448 646.667 663.368 646.667C663.288 646.667 663.208 646.667 663.127 646.667C663.047 646.667 662.967 646.667 662.887 646.667C662.807 646.667 662.726 646.667 662.646 646.667C662.566 646.667 662.486 646.667 662.405 646.667C662.325 646.667 662.245 646.667 662.165 646.667C662.084 646.667 662.004 646.667 661.924 646.667C661.844 646.667 661.763 646.667 661.683 646.667C661.603 646.667 661.522 646.667 661.442 646.667C661.361 646.667 661.281 646.667 661.201 646.667C661.12 646.667 661.04 646.667 660.959 646.667C660.879 646.667 660.799 646.667 660.718 646.667C660.638 646.667 660.557 646.667 660.477 646.667C660.396 646.667 660.316 646.667 660.235 646.667C660.155 646.667 660.074 646.667 659.994 646.667C659.913 646.667 659.833 646.667 659.752 646.667C659.672 646.667 659.591 646.667 659.511 646.667C659.43 646.667 659.349 646.667 659.269 646.667C659.188 646.667 659.108 646.667 659.027 646.667C658.946 646.667 658.866 646.667 658.785 646.667C658.704 646.667 658.624 646.667 658.543 646.667C658.462 646.667 658.382 646.667 658.301 646.667C658.22 646.667 658.14 646.667 658.059 646.667C657.978 646.667 657.897 646.667 657.817 646.667C657.736 646.667 657.655 646.667 657.574 646.667C657.494 646.667 657.413 646.667 657.332 646.667C657.251 646.667 657.17 646.667 657.09 646.667C657.009 646.667 656.928 646.667 656.847 646.667C656.766 646.667 656.685 646.667 656.605 646.667C656.524 646.667 656.443 646.667 656.362 646.667C656.281 646.667 656.2 646.667 656.119 646.667C656.038 646.667 655.957 646.667 655.877 646.667C655.796 646.667 655.715 646.667 655.634 646.667C655.553 646.667 655.472 646.667 655.391 646.667C655.31 646.667 655.229 646.667 655.148 646.667C655.067 646.667 654.986 646.667 654.905 646.667C654.824 646.667 654.743 646.667 654.662 646.667C654.581 646.667 654.5 646.667 654.419 646.667C654.338 646.667 654.257 646.667 654.175 646.667C654.094 646.667 654.013 646.667 653.932 646.667C653.851 646.667 653.77 646.667 653.689 646.667C653.608 646.667 653.527 646.667 653.446 646.667C653.364 646.667 653.283 646.667 653.202 646.667C653.121 646.667 653.04 646.667 652.959 646.667C652.877 646.667 652.796 646.667 652.715 646.667C652.634 646.667 652.553 646.667 652.471 646.667C652.39 646.667 652.309 646.667 652.228 646.667C652.147 646.667 652.065 646.667 651.984 646.667C651.903 646.667 651.822 646.667 651.74 646.667C651.659 646.667 651.578 646.667 651.497 646.667C651.415 646.667 651.334 646.667 651.253 646.667C651.171 646.667 651.09 646.667 651.009 646.667C650.927 646.667 650.846 646.667 650.765 646.667C650.683 646.667 650.602 646.667 650.521 646.667C650.439 646.667 650.358 646.667 650.277 646.667C650.195 646.667 650.114 646.667 650.033 646.667C649.951 646.667 649.87 646.667 649.788 646.667C649.707 646.667 649.626 646.667 649.544 646.667C649.463 646.667 649.381 646.667 649.3 646.667C649.219 646.667 649.137 646.667 649.056 646.667C648.974 646.667 648.893 646.667 648.811 646.667C648.73 646.667 648.648 646.667 648.567 646.667C648.485 646.667 648.404 646.667 648.322 646.667C648.241 646.667 648.159 646.667 648.078 646.667C647.997 646.667 647.915 646.667 647.833 646.667C647.752 646.667 647.67 646.667 647.589 646.667C647.507 646.667 647.426 646.667 647.344 646.667C647.263 646.667 647.181 646.667 647.1 646.667C647.018 646.667 646.937 646.667 646.855 646.667C646.773 646.667 646.692 646.667 646.61 646.667C646.529 646.667 646.447 646.667 646.366 646.667C646.284 646.667 646.202 646.667 646.121 646.667C646.039 646.667 645.958 646.667 645.876 646.667C645.794 646.667 645.713 646.667 645.631 646.667C645.549 646.667 645.468 646.667 645.386 646.667C645.305 646.667 645.223 646.667 645.141 646.667C645.06 646.667 644.978 646.667 644.896 646.667C644.815 646.667 644.733 646.667 644.651 646.667C644.57 646.667 644.488 646.667 644.406 646.667C644.325 646.667 644.243 646.667 644.161 646.667C644.08 646.667 643.998 646.667 643.916 646.667C643.835 646.667 643.753 646.667 643.671 646.667C643.589 646.667 643.508 646.667 643.426 646.667C643.344 646.667 643.263 646.667 643.181 646.667C643.099 646.667 643.017 646.667 642.936 646.667C642.854 646.667 642.772 646.667 642.69 646.667C642.609 646.667 642.527 646.667 642.445 646.667C642.364 646.667 642.282 646.667 642.2 646.667C642.118 646.667 642.036 646.667 641.955 646.667C641.873 646.667 641.791 646.667 641.709 646.667C641.628 646.667 641.546 646.667 641.464 646.667C641.382 646.667 641.301 646.667 641.219 646.667C641.137 646.667 641.055 646.667 640.973 646.667C640.892 646.667 640.81 646.667 640.728 646.667C640.646 646.667 640.564 646.667 640.483 646.667C640.401 646.667 640.319 646.667 640.237 646.667C640.155 646.667 640.074 646.667 639.992 646.667C639.91 646.667 639.828 646.667 639.746 646.667C639.665 646.667 639.583 646.667 639.501 646.667C639.419 646.667 639.337 646.667 639.255 646.667C639.174 646.667 639.092 646.667 639.01 646.667C638.928 646.667 638.846 646.667 638.764 646.667C638.683 646.667 638.601 646.667 638.519 646.667C638.437 646.667 638.355 646.667 638.273 646.667C638.192 646.667 638.11 646.667 638.028 646.667C637.946 646.667 637.864 646.667 637.782 646.667C637.7 646.667 637.619 646.667 637.537 646.667C637.455 646.667 637.373 646.667 637.291 646.667C637.209 646.667 637.127 646.667 637.046 646.667C636.964 646.667 636.882 646.667 636.8 646.667C636.718 646.667 636.636 646.667 636.554 646.667C636.473 646.667 636.391 646.667 636.309 646.667C636.227 646.667 636.145 646.667 636.063 646.667C635.981 646.667 635.899 646.667 635.818 646.667C635.736 646.667 635.654 646.667 635.572 646.667C635.49 646.667 635.408 646.667 635.326 646.667C635.245 646.667 635.163 646.667 635.081 646.667C634.999 646.667 634.917 646.667 634.835 646.667C634.753 646.667 634.671 646.667 634.589 646.667C634.508 646.667 634.426 646.667 634.344 646.667C634.262 646.667 634.18 646.667 634.098 646.667C634.016 646.667 633.935 646.667 633.853 646.667C633.771 646.667 633.689 646.667 633.607 646.667C633.525 646.667 633.443 646.667 633.361 646.667C633.28 646.667 633.198 646.667 633.116 646.667C633.034 646.667 632.952 646.667 632.87 646.667C632.788 646.667 632.707 646.667 632.625 646.667C632.543 646.667 632.461 646.667 632.379 646.667C632.297 646.667 632.215 646.667 632.133 646.667C632.052 646.667 631.97 646.667 631.888 646.667C631.806 646.667 631.724 646.667 631.642 646.667C631.56 646.667 631.479 646.667 631.397 646.667C631.315 646.667 631.233 646.667 631.151 646.667C631.069 646.667 630.988 646.667 630.906 646.667C630.824 646.667 630.742 646.667 630.66 646.667C630.578 646.667 630.497 646.667 630.415 646.667C630.333 646.667 630.251 646.667 630.169 646.667C630.087 646.667 630.006 646.667 629.924 646.667C629.842 646.667 629.76 646.667 629.678 646.667C629.596 646.667 629.515 646.667 629.433 646.667C629.351 646.667 629.269 646.667 629.187 646.667C629.106 646.667 629.024 646.667 628.942 646.667C628.86 646.667 628.778 646.667 628.697 646.667C628.615 646.667 628.533 646.667 628.451 646.667C628.369 646.667 628.288 646.667 628.206 646.667C628.124 646.667 628.042 646.667 627.961 646.667C627.879 646.667 627.797 646.667 627.715 646.667C627.633 646.667 627.552 646.667 627.47 646.667C627.388 646.667 627.306 646.667 627.225 646.667C627.143 646.667 627.061 646.667 626.979 646.667C626.898 646.667 626.816 646.667 626.734 646.667C626.652 646.667 626.571 646.667 626.489 646.667C626.407 646.667 626.326 646.667 626.244 646.667C626.162 646.667 626.08 646.667 625.999 646.667C625.917 646.667 625.835 646.667 625.753 646.667C625.672 646.667 625.59 646.667 625.508 646.667C625.427 646.667 625.345 646.667 625.263 646.667C625.182 646.667 625.1 646.667 625.018 646.667C624.937 646.667 624.855 646.667 624.773 646.667C624.692 646.667 624.61 646.667 624.528 646.667C624.447 646.667 624.365 646.667 624.283 646.667C624.202 646.667 624.12 646.667 624.038 646.667C623.957 646.667 623.875 646.667 623.794 646.667C623.712 646.667 623.63 646.667 623.549 646.667C623.467 646.667 623.385 646.667 623.304 646.667C623.222 646.667 623.141 646.667 623.059 646.667C622.978 646.667 622.896 646.667 622.814 646.667C622.733 646.667 622.651 646.667 622.57 646.667C622.488 646.667 622.407 646.667 622.325 646.667C622.243 646.667 622.162 646.667 622.08 646.667C621.999 646.667 621.917 646.667 621.836 646.667C621.754 646.667 621.673 646.667 621.591 646.667C621.51 646.667 621.428 646.667 621.347 646.667C621.265 646.667 621.184 646.667 621.102 646.667C621.021 646.667 620.939 646.667 620.858 646.667C620.776 646.667 620.695 646.667 620.613 646.667C620.532 646.667 620.451 646.667 620.369 646.667C620.288 646.667 620.206 646.667 620.125 646.667C620.043 646.667 619.962 646.667 619.881 646.667C619.799 646.667 619.718 646.667 619.636 646.667C619.555 646.667 619.474 646.667 619.392 646.667C619.311 646.667 619.229 646.667 619.148 646.667C619.067 646.667 618.985 646.667 618.904 646.667C618.823 646.667 618.741 646.667 618.66 646.667C618.579 646.667 618.497 646.667 618.416 646.667C618.335 646.667 618.253 646.667 618.172 646.667C618.091 646.667 618.01 646.667 617.928 646.667C617.847 646.667 617.766 646.667 617.684 646.667C617.603 646.667 617.522 646.667 617.441 646.667C617.359 646.667 617.278 646.667 617.197 646.667C617.116 646.667 617.034 646.667 616.953 646.667C616.872 646.667 616.791 646.667 616.71 646.667C616.628 646.667 616.547 646.667 616.466 646.667C616.385 646.667 616.304 646.667 616.223 646.667C616.141 646.667 616.06 646.667 615.979 646.667C615.898 646.667 615.817 646.667 615.736 646.667C615.655 646.667 615.574 646.667 615.493 646.667C615.411 646.667 615.33 646.667 615.249 646.667C615.168 646.667 615.087 646.667 615.006 646.667C614.925 646.667 614.844 646.667 614.763 646.667C614.682 646.667 614.601 646.667 614.52 646.667C614.439 646.667 614.358 646.667 614.277 646.667C614.196 646.667 614.115 646.667 614.034 646.667C613.953 646.667 613.872 646.667 613.791 646.667C613.71 646.667 613.629 646.667 613.548 646.667C613.467 646.667 613.386 646.667 613.305 646.667C613.225 646.667 613.144 646.667 613.063 646.667C612.982 646.667 612.901 646.667 612.82 646.667C612.739 646.667 612.659 646.667 612.578 646.667C612.497 646.667 612.416 646.667 612.335 646.667C612.254 646.667 612.174 646.667 612.093 646.667C612.012 646.667 611.931 646.667 611.85 646.667C611.77 646.667 611.689 646.667 611.608 646.667C611.527 646.667 611.447 646.667 611.366 646.667C611.285 646.667 611.205 646.667 611.124 646.667C611.043 646.667 610.962 646.667 610.882 646.667C610.801 646.667 610.72 646.667 610.64 646.667C610.559 646.667 610.479 646.667 610.398 646.667C610.317 646.667 610.237 646.667 610.156 646.667C610.075 646.667 609.995 646.667 609.914 646.667C609.834 646.667 609.753 646.667 609.673 646.667C609.592 646.667 609.512 646.667 609.431 646.667C609.35 646.667 609.27 646.667 609.19 646.667C609.109 646.667 609.029 646.667 608.948 646.667C608.868 646.667 608.787 646.667 608.707 646.667C608.626 646.667 608.546 646.667 608.465 646.667C608.385 646.667 608.305 646.667 608.224 646.667C608.144 646.667 608.063 646.667 607.983 646.667C607.903 646.667 607.822 646.667 607.742 646.667C607.662 646.667 607.581 646.667 607.501 646.667C607.421 646.667 607.341 646.667 607.26 646.667C607.18 646.667 607.1 646.667 607.019 646.667C606.939 646.667 606.859 646.667 606.779 646.667C606.699 646.667 606.618 646.667 606.538 646.667C606.458 646.667 606.378 646.667 606.298 646.667C606.217 646.667 606.137 646.667 606.057 646.667C605.977 646.667 605.897 646.667 605.817 646.667C605.737 646.667 605.657 646.667 605.577 646.667C605.497 646.667 605.416 646.667 605.336 646.667C605.256 646.667 605.176 646.667 605.096 646.667C605.016 646.667 604.936 646.667 604.856 646.667C604.776 646.667 604.696 646.667 604.616 646.667C604.536 646.667 604.457 646.667 604.377 646.667C604.297 646.667 604.217 646.667 604.137 646.667C604.057 646.667 603.977 646.667 603.897 646.667C603.818 646.667 603.738 646.667 603.658 646.667C603.578 646.667 603.498 646.667 603.418 646.667C603.339 646.667 603.259 646.667 603.179 646.667C603.099 646.667 603.02 646.667 602.94 646.667C602.86 646.667 602.78 646.667 602.701 646.667C602.621 646.667 602.541 646.667 602.462 646.667C602.382 646.667 602.302 646.667 602.223 646.667C602.143 646.667 602.064 646.667 601.984 646.667C601.904 646.667 601.825 646.667 601.745 646.667C601.666 646.667 601.586 646.667 601.507 646.667C601.427 646.667 601.348 646.667 601.268 646.667C601.189 646.667 601.109 646.667 601.03 646.667C600.95 646.667 600.871 646.667 600.791 646.667C600.712 646.667 600.633 646.667 600.553 646.667C600.474 646.667 600.395 646.667 600.315 646.667C600.236 646.667 600.156 646.667 600.077 646.667C599.998 646.667 599.919 646.667 599.839 646.667C599.76 646.667 599.681 646.667 599.602 646.667C599.522 646.667 599.443 646.667 599.364 646.667C599.285 646.667 599.206 646.667 599.126 646.667C599.047 646.667 598.968 646.667 598.889 646.667C598.81 646.667 598.731 646.667 598.652 646.667C598.572 646.667 598.493 646.667 598.414 646.667C598.335 646.667 598.256 646.667 598.177 646.667C598.098 646.667 598.019 646.667 597.94 646.667C597.861 646.667 597.782 646.667 597.703 646.667C597.624 646.667 597.546 646.667 597.467 646.667C597.388 646.667 597.309 646.667 597.23 646.667C597.151 646.667 597.072 646.667 596.993 646.667C596.915 646.667 596.836 646.667 596.757 646.667C596.678 646.667 596.599 646.667 596.521 646.667C596.442 646.667 596.363 646.667 596.285 646.667C596.206 646.667 596.127 646.667 596.049 646.667C595.97 646.667 595.891 646.667 595.813 646.667C595.734 646.667 595.655 646.667 595.577 646.667C595.498 646.667 595.42 646.667 595.341 646.667C595.263 646.667 595.184 646.667 595.106 646.667C595.027 646.667 594.949 646.667 594.87 646.667C594.792 646.667 594.713 646.667 594.635 646.667C594.556 646.667 594.478 646.667 594.4 646.667C594.321 646.667 594.243 646.667 594.165 646.667C594.086 646.667 594.008 646.667 593.93 646.667C593.851 646.667 593.773 646.667 593.695 646.667C593.617 646.667 593.538 646.667 593.46 646.667C593.382 646.667 593.304 646.667 593.226 646.667C593.147 646.667 593.069 646.667 592.991 646.667C592.913 646.667 592.835 646.667 592.757 646.667C592.679 646.667 592.601 646.667 592.523 646.667C592.445 646.667 592.367 646.667 592.289 646.667C592.211 646.667 592.133 646.667 592.055 646.667C591.977 646.667 591.899 646.667 591.821 646.667C591.743 646.667 591.665 646.667 591.587 646.667C591.51 646.667 591.432 646.667 591.354 646.667C591.276 646.667 591.198 646.667 591.121 646.667C591.043 646.667 590.965 646.667 590.887 646.667C590.81 646.667 590.732 646.667 590.654 646.667C590.577 646.667 590.499 646.667 590.421 646.667C590.344 646.667 590.266 646.667 590.189 646.667C590.111 646.667 590.033 646.667 589.956 646.667C589.878 646.667 589.801 646.667 589.723 646.667C589.646 646.667 589.568 646.667 589.491 646.667C589.414 646.667 589.336 646.667 589.259 646.667C589.181 646.667 589.104 646.667 589.027 646.667C588.949 646.667 588.872 646.667 588.795 646.667C588.717 646.667 588.64 646.667 588.563 646.667C588.486 646.667 588.408 646.667 588.331 646.667C588.254 646.667 588.177 646.667 588.1 646.667C588.023 646.667 587.945 646.667 587.868 646.667C587.791 646.667 587.714 646.667 587.637 646.667C587.56 646.667 587.483 646.667 587.406 646.667C587.329 646.667 587.252 646.667 587.175 646.667C587.098 646.667 587.021 646.667 586.944 646.667C586.867 646.667 586.79 646.667 586.714 646.667C586.637 646.667 586.56 646.667 586.483 646.667C586.406 646.667 586.33 646.667 586.253 646.667C586.176 646.667 586.099 646.667 586.023 646.667C585.946 646.667 585.869 646.667 585.793 646.667C585.716 646.667 585.639 646.667 585.563 646.667C585.486 646.667 585.41 646.667 585.333 646.667C585.256 646.667 585.18 646.667 585.103 646.667C585.027 646.667 584.951 646.667 584.874 646.667C584.798 646.667 584.721 646.667 584.645 646.667C584.568 646.667 584.492 646.667 584.416 646.667C584.339 646.667 584.263 646.667 584.187 646.667C584.111 646.667 584.034 646.667 583.958 646.667C583.882 646.667 583.806 646.667 583.729 646.667C583.653 646.667 583.577 646.667 583.501 646.667C583.425 646.667 583.349 646.667 583.273 646.667C583.197 646.667 583.121 646.667 583.045 646.667C582.969 646.667 582.893 646.667 582.817 646.667C582.741 646.667 582.665 646.667 582.589 646.667C582.513 646.667 582.437 646.667 582.361 646.667C582.285 646.667 582.209 646.667 582.134 646.667C582.058 646.667 581.982 646.667 581.906 646.667C581.831 646.667 581.755 646.667 581.679 646.667C581.604 646.667 581.528 646.667 581.452 646.667C581.377 646.667 581.301 646.667 581.226 646.667C581.15 646.667 581.074 646.667 580.999 646.667C580.923 646.667 580.848 646.667 580.772 646.667C580.697 646.667 580.622 646.667 580.546 646.667C580.471 646.667 580.395 646.667 580.32 646.667C580.245 646.667 580.169 646.667 580.094 646.667C580.019 646.667 579.943 646.667 579.868 646.667C579.793 646.667 579.718 646.667 579.643 646.667C579.568 646.667 579.492 646.667 579.417 646.667C579.342 646.667 579.267 646.667 579.192 646.667C579.117 646.667 579.042 646.667 578.967 646.667C578.892 646.667 578.817 646.667 578.742 646.667C578.667 646.667 578.592 646.667 578.517 646.667C578.442 646.667 578.368 646.667 578.293 646.667C578.218 646.667 578.143 646.667 578.068 646.667C577.994 646.667 577.919 646.667 577.844 646.667C577.77 646.667 577.695 646.667 577.62 646.667C577.546 646.667 577.471 646.667 577.396 646.667C577.322 646.667 577.247 646.667 577.173 646.667C577.098 646.667 577.024 646.667 576.949 646.667C576.875 646.667 576.8 646.667 576.726 646.667C576.652 646.667 576.577 646.667 576.503 646.667C576.429 646.667 576.354 646.667 576.28 646.667C576.206 646.667 576.132 646.667 576.057 646.667C575.983 646.667 575.909 646.667 575.835 646.667C575.761 646.667 575.687 646.667 575.612 646.667C575.538 646.667 575.464 646.667 575.39 646.667C575.316 646.667 575.242 646.667 575.168 646.667C575.094 646.667 575.02 646.667 574.947 646.667C574.873 646.667 574.799 646.667 574.725 646.667C574.651 646.667 574.577 646.667 574.504 646.667C574.43 646.667 574.356 646.667 574.282 646.667C574.209 646.667 574.135 646.667 574.061 646.667C573.988 646.667 573.914 646.667 573.841 646.667C573.767 646.667 573.693 646.667 573.62 646.667C573.546 646.667 573.473 646.667 573.399 646.667C573.326 646.667 573.253 646.667 573.179 646.667C573.106 646.667 573.032 646.667 572.959 646.667C572.886 646.667 572.813 646.667 572.739 646.667C572.666 646.667 572.593 646.667 572.52 646.667C572.447 646.667 572.373 646.667 572.3 646.667C572.227 646.667 572.154 646.667 572.081 646.667C572.008 646.667 571.935 646.667 571.862 646.667C571.789 646.667 571.716 646.667 571.643 646.667C571.57 646.667 571.497 646.667 571.424 646.667C571.352 646.667 571.279 646.667 571.206 646.667C571.133 646.667 571.06 646.667 570.988 646.667C570.915 646.667 570.842 646.667 570.77 646.667C570.697 646.667 570.625 646.667 570.552 646.667C570.479 646.667 570.407 646.667 570.334 646.667C570.262 646.667 570.189 646.667 570.117 646.667C570.044 646.667 569.972 646.667 569.9 646.667C569.827 646.667 569.755 646.667 569.683 646.667C569.61 646.667 569.538 646.667 569.466 646.667C569.394 646.667 569.321 646.667 569.249 646.667C569.177 646.667 569.105 646.667 569.033 646.667C568.961 646.667 568.889 646.667 568.817 646.667C568.745 646.667 568.673 646.667 568.601 646.667C568.529 646.667 568.457 646.667 568.385 646.667C568.313 646.667 568.241 646.667 568.17 646.667C568.098 646.667 568.026 646.667 567.954 646.667C567.883 646.667 567.811 646.667 567.739 646.667C567.667 646.667 567.596 646.667 567.524 646.667C567.453 646.667 567.381 646.667 567.31 646.667C567.238 646.667 567.167 646.667 567.095 646.667C567.024 646.667 566.952 646.667 566.881 646.667C566.81 646.667 566.738 646.667 566.667 646.667V666.667V686.667C566.738 686.667 566.81 686.667 566.881 686.667C566.952 686.667 567.024 686.667 567.095 686.667C567.167 686.667 567.238 686.667 567.31 686.667C567.381 686.667 567.453 686.667 567.524 686.667C567.596 686.667 567.667 686.667 567.739 686.667C567.811 686.667 567.883 686.667 567.954 686.667C568.026 686.667 568.098 686.667 568.17 686.667C568.241 686.667 568.313 686.667 568.385 686.667C568.457 686.667 568.529 686.667 568.601 686.667C568.673 686.667 568.745 686.667 568.817 686.667C568.889 686.667 568.961 686.667 569.033 686.667C569.105 686.667 569.177 686.667 569.249 686.667C569.321 686.667 569.394 686.667 569.466 686.667C569.538 686.667 569.61 686.667 569.683 686.667C569.755 686.667 569.827 686.667 569.9 686.667C569.972 686.667 570.044 686.667 570.117 686.667C570.189 686.667 570.262 686.667 570.334 686.667C570.407 686.667 570.479 686.667 570.552 686.667C570.625 686.667 570.697 686.667 570.77 686.667C570.842 686.667 570.915 686.667 570.988 686.667C571.06 686.667 571.133 686.667 571.206 686.667C571.279 686.667 571.352 686.667 571.424 686.667C571.497 686.667 571.57 686.667 571.643 686.667C571.716 686.667 571.789 686.667 571.862 686.667C571.935 686.667 572.008 686.667 572.081 686.667C572.154 686.667 572.227 686.667 572.3 686.667C572.373 686.667 572.447 686.667 572.52 686.667C572.593 686.667 572.666 686.667 572.739 686.667C572.813 686.667 572.886 686.667 572.959 686.667C573.032 686.667 573.106 686.667 573.179 686.667C573.253 686.667 573.326 686.667 573.399 686.667C573.473 686.667 573.546 686.667 573.62 686.667C573.693 686.667 573.767 686.667 573.841 686.667C573.914 686.667 573.988 686.667 574.061 686.667C574.135 686.667 574.209 686.667 574.282 686.667C574.356 686.667 574.43 686.667 574.504 686.667C574.577 686.667 574.651 686.667 574.725 686.667C574.799 686.667 574.873 686.667 574.947 686.667C575.02 686.667 575.094 686.667 575.168 686.667C575.242 686.667 575.316 686.667 575.39 686.667C575.464 686.667 575.538 686.667 575.612 686.667C575.687 686.667 575.761 686.667 575.835 686.667C575.909 686.667 575.983 686.667 576.057 686.667C576.132 686.667 576.206 686.667 576.28 686.667C576.354 686.667 576.429 686.667 576.503 686.667C576.577 686.667 576.652 686.667 576.726 686.667C576.8 686.667 576.875 686.667 576.949 686.667C577.024 686.667 577.098 686.667 577.173 686.667C577.247 686.667 577.322 686.667 577.396 686.667C577.471 686.667 577.546 686.667 577.62 686.667C577.695 686.667 577.77 686.667 577.844 686.667C577.919 686.667 577.994 686.667 578.068 686.667C578.143 686.667 578.218 686.667 578.293 686.667C578.368 686.667 578.442 686.667 578.517 686.667C578.592 686.667 578.667 686.667 578.742 686.667C578.817 686.667 578.892 686.667 578.967 686.667C579.042 686.667 579.117 686.667 579.192 686.667C579.267 686.667 579.342 686.667 579.417 686.667C579.492 686.667 579.568 686.667 579.643 686.667C579.718 686.667 579.793 686.667 579.868 686.667C579.943 686.667 580.019 686.667 580.094 686.667C580.169 686.667 580.245 686.667 580.32 686.667C580.395 686.667 580.471 686.667 580.546 686.667C580.622 686.667 580.697 686.667 580.772 686.667C580.848 686.667 580.923 686.667 580.999 686.667C581.074 686.667 581.15 686.667 581.226 686.667C581.301 686.667 581.377 686.667 581.452 686.667C581.528 686.667 581.604 686.667 581.679 686.667C581.755 686.667 581.831 686.667 581.906 686.667C581.982 686.667 582.058 686.667 582.134 686.667C582.209 686.667 582.285 686.667 582.361 686.667C582.437 686.667 582.513 686.667 582.589 686.667C582.665 686.667 582.741 686.667 582.817 686.667C582.893 686.667 582.969 686.667 583.045 686.667C583.121 686.667 583.197 686.667 583.273 686.667C583.349 686.667 583.425 686.667 583.501 686.667C583.577 686.667 583.653 686.667 583.729 686.667C583.806 686.667 583.882 686.667 583.958 686.667C584.034 686.667 584.111 686.667 584.187 686.667C584.263 686.667 584.339 686.667 584.416 686.667C584.492 686.667 584.568 686.667 584.645 686.667C584.721 686.667 584.798 686.667 584.874 686.667C584.951 686.667 585.027 686.667 585.103 686.667C585.18 686.667 585.256 686.667 585.333 686.667C585.41 686.667 585.486 686.667 585.563 686.667C585.639 686.667 585.716 686.667 585.793 686.667C585.869 686.667 585.946 686.667 586.023 686.667C586.099 686.667 586.176 686.667 586.253 686.667C586.33 686.667 586.406 686.667 586.483 686.667C586.56 686.667 586.637 686.667 586.714 686.667C586.79 686.667 586.867 686.667 586.944 686.667C587.021 686.667 587.098 686.667 587.175 686.667C587.252 686.667 587.329 686.667 587.406 686.667C587.483 686.667 587.56 686.667 587.637 686.667C587.714 686.667 587.791 686.667 587.868 686.667C587.945 686.667 588.023 686.667 588.1 686.667C588.177 686.667 588.254 686.667 588.331 686.667C588.408 686.667 588.486 686.667 588.563 686.667C588.64 686.667 588.717 686.667 588.795 686.667C588.872 686.667 588.949 686.667 589.027 686.667C589.104 686.667 589.181 686.667 589.259 686.667C589.336 686.667 589.414 686.667 589.491 686.667C589.568 686.667 589.646 686.667 589.723 686.667C589.801 686.667 589.878 686.667 589.956 686.667C590.033 686.667 590.111 686.667 590.189 686.667C590.266 686.667 590.344 686.667 590.421 686.667C590.499 686.667 590.577 686.667 590.654 686.667C590.732 686.667 590.81 686.667 590.887 686.667C590.965 686.667 591.043 686.667 591.121 686.667C591.198 686.667 591.276 686.667 591.354 686.667C591.432 686.667 591.51 686.667 591.587 686.667C591.665 686.667 591.743 686.667 591.821 686.667C591.899 686.667 591.977 686.667 592.055 686.667C592.133 686.667 592.211 686.667 592.289 686.667C592.367 686.667 592.445 686.667 592.523 686.667C592.601 686.667 592.679 686.667 592.757 686.667C592.835 686.667 592.913 686.667 592.991 686.667C593.069 686.667 593.147 686.667 593.226 686.667C593.304 686.667 593.382 686.667 593.46 686.667C593.538 686.667 593.617 686.667 593.695 686.667C593.773 686.667 593.851 686.667 593.93 686.667C594.008 686.667 594.086 686.667 594.165 686.667C594.243 686.667 594.321 686.667 594.4 686.667C594.478 686.667 594.556 686.667 594.635 686.667C594.713 686.667 594.792 686.667 594.87 686.667C594.949 686.667 595.027 686.667 595.106 686.667C595.184 686.667 595.263 686.667 595.341 686.667C595.42 686.667 595.498 686.667 595.577 686.667C595.655 686.667 595.734 686.667 595.813 686.667C595.891 686.667 595.97 686.667 596.049 686.667C596.127 686.667 596.206 686.667 596.285 686.667C596.363 686.667 596.442 686.667 596.521 686.667C596.599 686.667 596.678 686.667 596.757 686.667C596.836 686.667 596.915 686.667 596.993 686.667C597.072 686.667 597.151 686.667 597.23 686.667C597.309 686.667 597.388 686.667 597.467 686.667C597.546 686.667 597.624 686.667 597.703 686.667C597.782 686.667 597.861 686.667 597.94 686.667C598.019 686.667 598.098 686.667 598.177 686.667C598.256 686.667 598.335 686.667 598.414 686.667C598.493 686.667 598.572 686.667 598.652 686.667C598.731 686.667 598.81 686.667 598.889 686.667C598.968 686.667 599.047 686.667 599.126 686.667C599.206 686.667 599.285 686.667 599.364 686.667C599.443 686.667 599.522 686.667 599.602 686.667C599.681 686.667 599.76 686.667 599.839 686.667C599.919 686.667 599.998 686.667 600.077 686.667C600.156 686.667 600.236 686.667 600.315 686.667C600.395 686.667 600.474 686.667 600.553 686.667C600.633 686.667 600.712 686.667 600.791 686.667C600.871 686.667 600.95 686.667 601.03 686.667C601.109 686.667 601.189 686.667 601.268 686.667C601.348 686.667 601.427 686.667 601.507 686.667C601.586 686.667 601.666 686.667 601.745 686.667C601.825 686.667 601.904 686.667 601.984 686.667C602.064 686.667 602.143 686.667 602.223 686.667C602.302 686.667 602.382 686.667 602.462 686.667C602.541 686.667 602.621 686.667 602.701 686.667C602.78 686.667 602.86 686.667 602.94 686.667C603.02 686.667 603.099 686.667 603.179 686.667C603.259 686.667 603.339 686.667 603.418 686.667C603.498 686.667 603.578 686.667 603.658 686.667C603.738 686.667 603.818 686.667 603.897 686.667C603.977 686.667 604.057 686.667 604.137 686.667C604.217 686.667 604.297 686.667 604.377 686.667C604.457 686.667 604.536 686.667 604.616 686.667C604.696 686.667 604.776 686.667 604.856 686.667C604.936 686.667 605.016 686.667 605.096 686.667C605.176 686.667 605.256 686.667 605.336 686.667C605.416 686.667 605.497 686.667 605.577 686.667C605.657 686.667 605.737 686.667 605.817 686.667C605.897 686.667 605.977 686.667 606.057 686.667C606.137 686.667 606.217 686.667 606.298 686.667C606.378 686.667 606.458 686.667 606.538 686.667C606.618 686.667 606.699 686.667 606.779 686.667C606.859 686.667 606.939 686.667 607.019 686.667C607.1 686.667 607.18 686.667 607.26 686.667C607.341 686.667 607.421 686.667 607.501 686.667C607.581 686.667 607.662 686.667 607.742 686.667C607.822 686.667 607.903 686.667 607.983 686.667C608.063 686.667 608.144 686.667 608.224 686.667C608.305 686.667 608.385 686.667 608.465 686.667C608.546 686.667 608.626 686.667 608.707 686.667C608.787 686.667 608.868 686.667 608.948 686.667C609.029 686.667 609.109 686.667 609.19 686.667C609.27 686.667 609.35 686.667 609.431 686.667C609.512 686.667 609.592 686.667 609.673 686.667C609.753 686.667 609.834 686.667 609.914 686.667C609.995 686.667 610.075 686.667 610.156 686.667C610.237 686.667 610.317 686.667 610.398 686.667C610.479 686.667 610.559 686.667 610.64 686.667C610.72 686.667 610.801 686.667 610.882 686.667C610.962 686.667 611.043 686.667 611.124 686.667C611.205 686.667 611.285 686.667 611.366 686.667C611.447 686.667 611.527 686.667 611.608 686.667C611.689 686.667 611.77 686.667 611.85 686.667C611.931 686.667 612.012 686.667 612.093 686.667C612.174 686.667 612.254 686.667 612.335 686.667C612.416 686.667 612.497 686.667 612.578 686.667C612.659 686.667 612.739 686.667 612.82 686.667C612.901 686.667 612.982 686.667 613.063 686.667C613.144 686.667 613.225 686.667 613.305 686.667C613.386 686.667 613.467 686.667 613.548 686.667C613.629 686.667 613.71 686.667 613.791 686.667C613.872 686.667 613.953 686.667 614.034 686.667C614.115 686.667 614.196 686.667 614.277 686.667C614.358 686.667 614.439 686.667 614.52 686.667C614.601 686.667 614.682 686.667 614.763 686.667C614.844 686.667 614.925 686.667 615.006 686.667C615.087 686.667 615.168 686.667 615.249 686.667C615.33 686.667 615.411 686.667 615.493 686.667C615.574 686.667 615.655 686.667 615.736 686.667C615.817 686.667 615.898 686.667 615.979 686.667C616.06 686.667 616.141 686.667 616.223 686.667C616.304 686.667 616.385 686.667 616.466 686.667C616.547 686.667 616.628 686.667 616.71 686.667C616.791 686.667 616.872 686.667 616.953 686.667C617.034 686.667 617.116 686.667 617.197 686.667C617.278 686.667 617.359 686.667 617.441 686.667C617.522 686.667 617.603 686.667 617.684 686.667C617.766 686.667 617.847 686.667 617.928 686.667C618.01 686.667 618.091 686.667 618.172 686.667C618.253 686.667 618.335 686.667 618.416 686.667C618.497 686.667 618.579 686.667 618.66 686.667C618.741 686.667 618.823 686.667 618.904 686.667C618.985 686.667 619.067 686.667 619.148 686.667C619.229 686.667 619.311 686.667 619.392 686.667C619.474 686.667 619.555 686.667 619.636 686.667C619.718 686.667 619.799 686.667 619.881 686.667C619.962 686.667 620.043 686.667 620.125 686.667C620.206 686.667 620.288 686.667 620.369 686.667C620.451 686.667 620.532 686.667 620.613 686.667C620.695 686.667 620.776 686.667 620.858 686.667C620.939 686.667 621.021 686.667 621.102 686.667C621.184 686.667 621.265 686.667 621.347 686.667C621.428 686.667 621.51 686.667 621.591 686.667C621.673 686.667 621.754 686.667 621.836 686.667C621.917 686.667 621.999 686.667 622.08 686.667C622.162 686.667 622.243 686.667 622.325 686.667C622.407 686.667 622.488 686.667 622.57 686.667C622.651 686.667 622.733 686.667 622.814 686.667C622.896 686.667 622.978 686.667 623.059 686.667C623.141 686.667 623.222 686.667 623.304 686.667C623.385 686.667 623.467 686.667 623.549 686.667C623.63 686.667 623.712 686.667 623.794 686.667C623.875 686.667 623.957 686.667 624.038 686.667C624.12 686.667 624.202 686.667 624.283 686.667C624.365 686.667 624.447 686.667 624.528 686.667C624.61 686.667 624.692 686.667 624.773 686.667C624.855 686.667 624.937 686.667 625.018 686.667C625.1 686.667 625.182 686.667 625.263 686.667C625.345 686.667 625.427 686.667 625.508 686.667C625.59 686.667 625.672 686.667 625.753 686.667C625.835 686.667 625.917 686.667 625.999 686.667C626.08 686.667 626.162 686.667 626.244 686.667C626.326 686.667 626.407 686.667 626.489 686.667C626.571 686.667 626.652 686.667 626.734 686.667C626.816 686.667 626.898 686.667 626.979 686.667C627.061 686.667 627.143 686.667 627.225 686.667C627.306 686.667 627.388 686.667 627.47 686.667C627.552 686.667 627.633 686.667 627.715 686.667C627.797 686.667 627.879 686.667 627.961 686.667C628.042 686.667 628.124 686.667 628.206 686.667C628.288 686.667 628.369 686.667 628.451 686.667C628.533 686.667 628.615 686.667 628.697 686.667C628.778 686.667 628.86 686.667 628.942 686.667C629.024 686.667 629.106 686.667 629.187 686.667C629.269 686.667 629.351 686.667 629.433 686.667C629.515 686.667 629.596 686.667 629.678 686.667C629.76 686.667 629.842 686.667 629.924 686.667C630.006 686.667 630.087 686.667 630.169 686.667C630.251 686.667 630.333 686.667 630.415 686.667C630.497 686.667 630.578 686.667 630.66 686.667C630.742 686.667 630.824 686.667 630.906 686.667C630.988 686.667 631.069 686.667 631.151 686.667C631.233 686.667 631.315 686.667 631.397 686.667C631.479 686.667 631.56 686.667 631.642 686.667C631.724 686.667 631.806 686.667 631.888 686.667C631.97 686.667 632.052 686.667 632.133 686.667C632.215 686.667 632.297 686.667 632.379 686.667C632.461 686.667 632.543 686.667 632.625 686.667C632.707 686.667 632.788 686.667 632.87 686.667C632.952 686.667 633.034 686.667 633.116 686.667C633.198 686.667 633.28 686.667 633.361 686.667C633.443 686.667 633.525 686.667 633.607 686.667C633.689 686.667 633.771 686.667 633.853 686.667C633.935 686.667 634.016 686.667 634.098 686.667C634.18 686.667 634.262 686.667 634.344 686.667C634.426 686.667 634.508 686.667 634.589 686.667C634.671 686.667 634.753 686.667 634.835 686.667C634.917 686.667 634.999 686.667 635.081 686.667C635.163 686.667 635.245 686.667 635.326 686.667C635.408 686.667 635.49 686.667 635.572 686.667C635.654 686.667 635.736 686.667 635.818 686.667C635.899 686.667 635.981 686.667 636.063 686.667C636.145 686.667 636.227 686.667 636.309 686.667C636.391 686.667 636.473 686.667 636.554 686.667C636.636 686.667 636.718 686.667 636.8 686.667C636.882 686.667 636.964 686.667 637.046 686.667C637.127 686.667 637.209 686.667 637.291 686.667C637.373 686.667 637.455 686.667 637.537 686.667C637.619 686.667 637.7 686.667 637.782 686.667C637.864 686.667 637.946 686.667 638.028 686.667C638.11 686.667 638.192 686.667 638.273 686.667C638.355 686.667 638.437 686.667 638.519 686.667C638.601 686.667 638.683 686.667 638.764 686.667C638.846 686.667 638.928 686.667 639.01 686.667C639.092 686.667 639.174 686.667 639.255 686.667C639.337 686.667 639.419 686.667 639.501 686.667C639.583 686.667 639.665 686.667 639.746 686.667C639.828 686.667 639.91 686.667 639.992 686.667C640.074 686.667 640.155 686.667 640.237 686.667C640.319 686.667 640.401 686.667 640.483 686.667C640.564 686.667 640.646 686.667 640.728 686.667C640.81 686.667 640.892 686.667 640.973 686.667C641.055 686.667 641.137 686.667 641.219 686.667C641.301 686.667 641.382 686.667 641.464 686.667C641.546 686.667 641.628 686.667 641.709 686.667C641.791 686.667 641.873 686.667 641.955 686.667C642.036 686.667 642.118 686.667 642.2 686.667C642.282 686.667 642.364 686.667 642.445 686.667C642.527 686.667 642.609 686.667 642.69 686.667C642.772 686.667 642.854 686.667 642.936 686.667C643.017 686.667 643.099 686.667 643.181 686.667C643.263 686.667 643.344 686.667 643.426 686.667C643.508 686.667 643.589 686.667 643.671 686.667C643.753 686.667 643.835 686.667 643.916 686.667C643.998 686.667 644.08 686.667 644.161 686.667C644.243 686.667 644.325 686.667 644.406 686.667C644.488 686.667 644.57 686.667 644.651 686.667C644.733 686.667 644.815 686.667 644.896 686.667C644.978 686.667 645.06 686.667 645.141 686.667C645.223 686.667 645.305 686.667 645.386 686.667C645.468 686.667 645.549 686.667 645.631 686.667C645.713 686.667 645.794 686.667 645.876 686.667C645.958 686.667 646.039 686.667 646.121 686.667C646.202 686.667 646.284 686.667 646.366 686.667C646.447 686.667 646.529 686.667 646.61 686.667C646.692 686.667 646.773 686.667 646.855 686.667C646.937 686.667 647.018 686.667 647.1 686.667C647.181 686.667 647.263 686.667 647.344 686.667C647.426 686.667 647.507 686.667 647.589 686.667C647.67 686.667 647.752 686.667 647.833 686.667C647.915 686.667 647.997 686.667 648.078 686.667C648.159 686.667 648.241 686.667 648.322 686.667C648.404 686.667 648.485 686.667 648.567 686.667C648.648 686.667 648.73 686.667 648.811 686.667C648.893 686.667 648.974 686.667 649.056 686.667C649.137 686.667 649.219 686.667 649.3 686.667C649.381 686.667 649.463 686.667 649.544 686.667C649.626 686.667 649.707 686.667 649.788 686.667C649.87 686.667 649.951 686.667 650.033 686.667C650.114 686.667 650.195 686.667 650.277 686.667C650.358 686.667 650.439 686.667 650.521 686.667C650.602 686.667 650.683 686.667 650.765 686.667C650.846 686.667 650.927 686.667 651.009 686.667C651.09 686.667 651.171 686.667 651.253 686.667C651.334 686.667 651.415 686.667 651.497 686.667C651.578 686.667 651.659 686.667 651.74 686.667C651.822 686.667 651.903 686.667 651.984 686.667C652.065 686.667 652.147 686.667 652.228 686.667C652.309 686.667 652.39 686.667 652.471 686.667C652.553 686.667 652.634 686.667 652.715 686.667C652.796 686.667 652.877 686.667 652.959 686.667C653.04 686.667 653.121 686.667 653.202 686.667C653.283 686.667 653.364 686.667 653.446 686.667C653.527 686.667 653.608 686.667 653.689 686.667C653.77 686.667 653.851 686.667 653.932 686.667C654.013 686.667 654.094 686.667 654.175 686.667C654.257 686.667 654.338 686.667 654.419 686.667C654.5 686.667 654.581 686.667 654.662 686.667C654.743 686.667 654.824 686.667 654.905 686.667C654.986 686.667 655.067 686.667 655.148 686.667C655.229 686.667 655.31 686.667 655.391 686.667C655.472 686.667 655.553 686.667 655.634 686.667C655.715 686.667 655.796 686.667 655.877 686.667C655.957 686.667 656.038 686.667 656.119 686.667C656.2 686.667 656.281 686.667 656.362 686.667C656.443 686.667 656.524 686.667 656.605 686.667C656.685 686.667 656.766 686.667 656.847 686.667C656.928 686.667 657.009 686.667 657.09 686.667C657.17 686.667 657.251 686.667 657.332 686.667C657.413 686.667 657.494 686.667 657.574 686.667C657.655 686.667 657.736 686.667 657.817 686.667C657.897 686.667 657.978 686.667 658.059 686.667C658.14 686.667 658.22 686.667 658.301 686.667C658.382 686.667 658.462 686.667 658.543 686.667C658.624 686.667 658.704 686.667 658.785 686.667C658.866 686.667 658.946 686.667 659.027 686.667C659.108 686.667 659.188 686.667 659.269 686.667C659.349 686.667 659.43 686.667 659.511 686.667C659.591 686.667 659.672 686.667 659.752 686.667C659.833 686.667 659.913 686.667 659.994 686.667C660.074 686.667 660.155 686.667 660.235 686.667C660.316 686.667 660.396 686.667 660.477 686.667C660.557 686.667 660.638 686.667 660.718 686.667C660.799 686.667 660.879 686.667 660.959 686.667C661.04 686.667 661.12 686.667 661.201 686.667C661.281 686.667 661.361 686.667 661.442 686.667C661.522 686.667 661.603 686.667 661.683 686.667C661.763 686.667 661.844 686.667 661.924 686.667C662.004 686.667 662.084 686.667 662.165 686.667C662.245 686.667 662.325 686.667 662.405 686.667C662.486 686.667 662.566 686.667 662.646 686.667C662.726 686.667 662.807 686.667 662.887 686.667C662.967 686.667 663.047 686.667 663.127 686.667C663.208 686.667 663.288 686.667 663.368 686.667C663.448 686.667 663.528 686.667 663.608 686.667C663.688 686.667 663.768 686.667 663.848 686.667C663.928 686.667 664.009 686.667 664.089 686.667C664.169 686.667 664.249 686.667 664.329 686.667C664.409 686.667 664.489 686.667 664.569 686.667C664.649 686.667 664.729 686.667 664.809 686.667C664.888 686.667 664.968 686.667 665.048 686.667C665.128 686.667 665.208 686.667 665.288 686.667C665.368 686.667 665.448 686.667 665.528 686.667C665.607 686.667 665.687 686.667 665.767 686.667C665.847 686.667 665.927 686.667 666.007 686.667C666.086 686.667 666.166 686.667 666.246 686.667C666.326 686.667 666.405 686.667 666.485 686.667C666.565 686.667 666.645 686.667 666.724 686.667C666.804 686.667 666.884 686.667 666.963 686.667C667.043 686.667 667.123 686.667 667.202 686.667C667.282 686.667 667.361 686.667 667.441 686.667C667.521 686.667 667.6 686.667 667.68 686.667C667.759 686.667 667.839 686.667 667.918 686.667C667.998 686.667 668.077 686.667 668.157 686.667C668.236 686.667 668.316 686.667 668.395 686.667C668.475 686.667 668.554 686.667 668.634 686.667C668.713 686.667 668.792 686.667 668.872 686.667C668.951 686.667 669.031 686.667 669.11 686.667C669.189 686.667 669.269 686.667 669.348 686.667C669.427 686.667 669.507 686.667 669.586 686.667C669.665 686.667 669.744 686.667 669.824 686.667C669.903 686.667 669.982 686.667 670.061 686.667C670.14 686.667 670.22 686.667 670.299 686.667C670.378 686.667 670.457 686.667 670.536 686.667C670.615 686.667 670.695 686.667 670.774 686.667C670.853 686.667 670.932 686.667 671.011 686.667C671.09 686.667 671.169 686.667 671.248 686.667C671.327 686.667 671.406 686.667 671.485 686.667C671.564 686.667 671.643 686.667 671.722 686.667C671.801 686.667 671.88 686.667 671.959 686.667C672.037 686.667 672.116 686.667 672.195 686.667C672.274 686.667 672.353 686.667 672.432 686.667C672.511 686.667 672.589 686.667 672.668 686.667C672.747 686.667 672.826 686.667 672.904 686.667C672.983 686.667 673.062 686.667 673.141 686.667C673.219 686.667 673.298 686.667 673.377 686.667C673.455 686.667 673.534 686.667 673.613 686.667C673.691 686.667 673.77 686.667 673.848 686.667C673.927 686.667 674.006 686.667 674.084 686.667C674.163 686.667 674.241 686.667 674.32 686.667C674.398 686.667 674.477 686.667 674.555 686.667C674.634 686.667 674.712 686.667 674.79 686.667C674.869 686.667 674.947 686.667 675.026 686.667C675.104 686.667 675.182 686.667 675.261 686.667C675.339 686.667 675.417 686.667 675.496 686.667C675.574 686.667 675.652 686.667 675.73 686.667C675.809 686.667 675.887 686.667 675.965 686.667C676.043 686.667 676.122 686.667 676.2 686.667C676.278 686.667 676.356 686.667 676.434 686.667C676.512 686.667 676.59 686.667 676.668 686.667C676.747 686.667 676.825 686.667 676.903 686.667C676.981 686.667 677.059 686.667 677.137 686.667C677.215 686.667 677.293 686.667 677.371 686.667C677.448 686.667 677.526 686.667 677.604 686.667C677.682 686.667 677.76 686.667 677.838 686.667C677.916 686.667 677.994 686.667 678.071 686.667C678.149 686.667 678.227 686.667 678.305 686.667C678.383 686.667 678.46 686.667 678.538 686.667C678.616 686.667 678.693 686.667 678.771 686.667C678.849 686.667 678.926 686.667 679.004 686.667C679.082 686.667 679.159 686.667 679.237 686.667C679.315 686.667 679.392 686.667 679.47 686.667C679.547 686.667 679.625 686.667 679.702 686.667C679.78 686.667 679.857 686.667 679.935 686.667C680.012 686.667 680.089 686.667 680.167 686.667C680.244 686.667 680.322 686.667 680.399 686.667C680.476 686.667 680.554 686.667 680.631 686.667C680.708 686.667 680.785 686.667 680.863 686.667C680.94 686.667 681.017 686.667 681.094 686.667C681.172 686.667 681.249 686.667 681.326 686.667C681.403 686.667 681.48 686.667 681.557 686.667C681.634 686.667 681.711 686.667 681.789 686.667C681.866 686.667 681.943 686.667 682.02 686.667C682.097 686.667 682.174 686.667 682.251 686.667C682.327 686.667 682.404 686.667 682.481 686.667C682.558 686.667 682.635 686.667 682.712 686.667C682.789 686.667 682.866 686.667 682.942 686.667C683.019 686.667 683.096 686.667 683.173 686.667C683.25 686.667 683.326 686.667 683.403 686.667C683.48 686.667 683.556 686.667 683.633 686.667C683.71 686.667 683.786 686.667 683.863 686.667C683.939 686.667 684.016 686.667 684.093 686.667C684.169 686.667 684.246 686.667 684.322 686.667C684.399 686.667 684.475 686.667 684.552 686.667C684.628 686.667 684.704 686.667 684.781 686.667C684.857 686.667 684.934 686.667 685.01 686.667C685.086 686.667 685.163 686.667 685.239 686.667C685.315 686.667 685.391 686.667 685.468 686.667C685.544 686.667 685.62 686.667 685.696 686.667C685.772 686.667 685.849 686.667 685.925 686.667C686.001 686.667 686.077 686.667 686.153 686.667C686.229 686.667 686.305 686.667 686.381 686.667C686.457 686.667 686.533 686.667 686.609 686.667C686.685 686.667 686.761 686.667 686.837 686.667C686.913 686.667 686.989 686.667 687.065 686.667C687.14 686.667 687.216 686.667 687.292 686.667C687.368 686.667 687.444 686.667 687.519 686.667C687.595 686.667 687.671 686.667 687.747 686.667C687.822 686.667 687.898 686.667 687.974 686.667V666.667ZM436.723 400V380H363.277V400V420H436.723V400ZM308.852 733.333V753.333H491.147V733.333V713.333H308.852V733.333Z" fill="url(#paint0_linear_106_72)"/>
<defs>
<linearGradient id="paint0_linear_106_72" x1="754.653" y1="400" x2="45.3477" y2="400" gradientUnits="userSpaceOnUse">
<stop offset="0.379808" stop-color="#DB403F" stop-opacity="0.85"/>
<stop offset="0.870192" stop-color="#2954B7" stop-opacity="0.9"/>
</linearGradient>
</defs>
</svg>
