<svg width="800" height="800" viewBox="0 0 800 800" fill="none" xmlns="http://www.w3.org/2000/svg">
<path d="M700 566.667C700 603.486 670.152 633.333 633.333 633.333H166.667C129.848 633.333 100 603.486 100 566.667V254.367L322.792 402.894C368.671 433.479 431.327 433.479 477.206 402.894H477.207L700 254.364V566.667ZM633.333 166.667C664.149 166.667 690.081 187.575 697.718 215.979C695.141 216.316 692.6 217.234 690.292 218.772L457.792 373.771C423.669 396.519 376.329 396.52 342.206 373.771H342.205L109.706 218.773C107.398 217.235 104.857 216.318 102.281 215.981C109.918 187.576 135.85 166.667 166.667 166.667H633.333Z" fill="white"/>
</svg>
