<svg width="2199" height="489" viewBox="0 0 2199 489" fill="none" xmlns="http://www.w3.org/2000/svg">
<path d="M374.35 253L344.35 317.5H0.850098L30.8501 253H374.35Z" fill="white" stroke="white" stroke-width="0.68" stroke-miterlimit="10"/>
<path d="M441.85 107.5L411.85 171.999H89.3496L59.3496 107.5H441.85Z" fill="white" stroke="white" stroke-width="0.68" stroke-miterlimit="10"/>
<path d="M418.35 413.499V477.499H21.35L51.35 413.499H418.35Z" fill="white" stroke="white" stroke-width="0.68" stroke-miterlimit="10"/>
<path d="M857.35 107.5V477.5L793.351 425.5L576.351 249V477.5H511.851V107.5L576.351 159L793.351 331.499V107.5H857.35Z" fill="white" stroke="white" stroke-width="0.68" stroke-miterlimit="10"/>
<path d="M1341.85 64.5C1359.52 64.5 1373.85 50.1731 1373.85 32.5C1373.85 14.8269 1359.52 0.5 1341.85 0.5C1324.18 0.5 1309.85 14.8269 1309.85 32.5C1309.85 50.1731 1324.18 64.5 1341.85 64.5Z" fill="white" stroke="white" stroke-width="0.68" stroke-miterlimit="10"/>
<path d="M1374.35 107.5H1309.85V477.5H1374.35V107.5Z" fill="white" stroke="white" stroke-width="0.68" stroke-miterlimit="10"/>
<path d="M1535.35 292.5C1535.35 364 1593.35 422 1664.85 422C1714.35 422 1757.85 394 1779.35 353V442.5C1747.35 464.5 1707.85 477.5 1665.35 477.5C1557.85 477.5 1470.85 394.5 1470.85 292.5C1470.85 190.5 1557.85 107.5 1665.35 107.5C1707.85 107.5 1747.35 120.5 1779.35 142.5V232C1757.85 191 1714.35 163 1664.85 163C1593.35 163 1535.35 221 1535.35 292.5Z" fill="white" stroke="white" stroke-width="0.68" stroke-miterlimit="10"/>
<path d="M1258.35 102.5L1081.35 488L904.85 102.5H975.85L1081.35 333L1187.35 102.5H1258.35Z" fill="white" stroke="white" stroke-width="0.68" stroke-miterlimit="10"/>
<path d="M2021.85 212.5L1972.85 320H2056.35L2036.35 370H1949.85L1902.85 472.501H1845.35L2021.85 87.0005L2198.35 472.501H2140.85L2021.85 212.5Z" fill="white" stroke="white" stroke-width="0.68" stroke-miterlimit="10"/>
</svg>
