<svg width="2967" height="600" viewBox="0 0 2967 600" fill="none" xmlns="http://www.w3.org/2000/svg">
<path d="M522.85 362C517.85 392 507.35 420.5 492.35 446C482.85 462.5 468.85 476 451.85 484C369.35 522.5 257.85 499 177.85 419C90.8557 332.503 70.5835 209.432 122.93 125.951C123.534 124.989 124.308 124.143 125.205 123.447C129.258 120.303 133.352 117.199 137.85 114.5C164.35 96.5 194.35 83.5 226.85 77C213.85 82.5 201.85 90.5 191.85 101C131.85 161 150.85 278.5 235.35 362.5C319.35 446.5 436.35 466 496.85 406C508.35 393 516.85 378.5 522.85 362Z" fill="black" stroke="black" stroke-width="1.1445" stroke-miterlimit="10"/>
<path d="M436.851 511.501C393.851 547.501 337.851 569.5 277.351 569.5C139.851 569.5 28.3506 458 28.3506 320.5C28.3506 271 42.8506 225 67.8506 186C24.3506 269 46.8506 385 129.351 467C220.851 559 353.851 576.501 436.851 511.501Z" fill="black" stroke="black" stroke-width="1.25" stroke-miterlimit="10"/>
<path d="M502.35 223C501.35 251 484.85 276.5 459.85 288.5C428.35 303.5 389.85 295 367.35 268L480.85 179C472.85 167 463.35 155 452.35 144C389.85 81.4998 303.35 66.9998 258.35 112C213.35 157 227.85 243.5 290.35 306C352.85 368.5 439.35 383 484.35 338C511.85 310.5 517.35 267 502.35 223ZM324.85 137.5C348.85 113.5 394.85 120 432.85 150.5L319.85 217C305.85 186.5 306.85 156 324.85 137.5Z" fill="black" stroke="black" stroke-width="0.68" stroke-miterlimit="10"/>
<path d="M1125.35 272L1095.35 336.5H751.85L781.85 272H1125.35Z" fill="black" stroke="black" stroke-width="0.68" stroke-miterlimit="10"/>
<path d="M1192.85 126.5L1162.85 190.999H840.35L810.35 126.5H1192.85Z" fill="black" stroke="black" stroke-width="0.68" stroke-miterlimit="10"/>
<path d="M1169.35 432.499V496.499H772.35L802.35 432.499H1169.35Z" fill="black" stroke="black" stroke-width="0.68" stroke-miterlimit="10"/>
<path d="M1608.35 126.5V496.5L1544.35 444.5L1327.35 268V496.5H1262.85V126.5L1327.35 178L1544.35 350.499V126.5H1608.35Z" fill="black" stroke="black" stroke-width="0.68" stroke-miterlimit="10"/>
<path d="M2092.85 83.5C2110.52 83.5 2124.85 69.1731 2124.85 51.5C2124.85 33.8269 2110.52 19.5 2092.85 19.5C2075.18 19.5 2060.85 33.8269 2060.85 51.5C2060.85 69.1731 2075.18 83.5 2092.85 83.5Z" fill="black" stroke="black" stroke-width="0.68" stroke-miterlimit="10"/>
<path d="M2125.35 126.5H2060.85V496.5H2125.35V126.5Z" fill="black" stroke="black" stroke-width="0.68" stroke-miterlimit="10"/>
<path d="M2286.35 311.5C2286.35 383 2344.35 441 2415.85 441C2465.35 441 2508.85 413 2530.35 372V461.5C2498.35 483.5 2458.85 496.5 2416.35 496.5C2308.85 496.5 2221.85 413.5 2221.85 311.5C2221.85 209.5 2308.85 126.5 2416.35 126.5C2458.85 126.5 2498.35 139.5 2530.35 161.5V251C2508.85 210 2465.35 182 2415.85 182C2344.35 182 2286.35 240 2286.35 311.5Z" fill="black" stroke="black" stroke-width="0.68" stroke-miterlimit="10"/>
<path d="M2009.35 121.5L1832.35 507L1655.85 121.5H1726.85L1832.35 352L1938.35 121.5H2009.35Z" fill="black" stroke="black" stroke-width="0.68" stroke-miterlimit="10"/>
<path d="M2772.85 231.5L2723.85 339H2807.35L2787.35 389H2700.85L2653.85 491.501H2596.35L2772.85 106L2949.35 491.501H2891.85L2772.85 231.5Z" fill="black" stroke="black" stroke-width="0.68" stroke-miterlimit="10"/>
</svg>
