<svg width="800" height="800" viewBox="0 0 800 800" fill="none" xmlns="http://www.w3.org/2000/svg">
<path d="M627.831 162.45H570.399V133.039C570.399 121.685 561.194 112.48 549.839 112.48C538.485 112.48 529.28 121.685 529.28 133.039V162.45H270.72V133.039C270.72 121.685 261.515 112.48 250.161 112.48C238.806 112.48 229.601 121.685 229.601 133.039V162.45H172.169C141.398 162.45 116.365 187.484 116.365 218.254V631.717C116.365 662.488 141.399 687.521 172.169 687.521H627.833C658.604 687.521 683.636 662.488 683.636 631.717V218.254C683.635 187.483 658.601 162.45 627.831 162.45ZM157.483 218.254C157.483 210.144 164.058 203.569 172.168 203.569H229.599V227.031C229.599 238.386 238.804 247.59 250.159 247.59C261.513 247.59 270.718 238.386 270.718 227.031V203.568H529.279V227.03C529.279 238.385 538.484 247.589 549.838 247.589C561.193 247.589 570.398 238.385 570.398 227.03V203.568H627.83C635.939 203.568 642.516 210.144 642.516 218.253V269.945H157.483V218.254ZM642.517 631.716C642.517 639.826 635.942 646.402 627.831 646.402H172.169C164.058 646.402 157.484 639.826 157.484 631.716V311.064H642.517V631.716Z" fill="white"/>
<path d="M627.832 688H172.169C141.134 688 115.885 662.751 115.885 631.716V218.253C115.885 187.218 141.134 161.969 172.169 161.969H229.121V133.039C229.121 121.438 238.559 112 250.16 112C261.76 112 271.199 121.438 271.199 133.039V161.97H528.799V133.039C528.799 121.438 538.237 112 549.839 112C561.44 112 570.878 121.438 570.878 133.039V161.97H627.83C658.866 161.97 684.115 187.219 684.115 218.254V631.717C684.114 662.752 658.866 688 627.832 688ZM172.169 162.93C141.663 162.93 116.845 187.748 116.845 218.254V631.717C116.845 662.222 141.663 687.041 172.169 687.041H627.832C658.337 687.041 683.155 662.223 683.155 631.717V218.254C683.155 187.748 658.337 162.93 627.83 162.93H569.918V133.039C569.918 121.968 560.91 112.96 549.839 112.96C538.767 112.96 529.759 121.968 529.759 133.039V162.93H270.24V133.039C270.24 121.968 261.232 112.96 250.16 112.96C239.089 112.96 230.081 121.968 230.081 133.039V162.93H172.169ZM627.83 646.881H172.169C163.807 646.881 157.004 640.078 157.004 631.715V310.584H642.996V631.715C642.996 640.079 636.193 646.881 627.83 646.881ZM157.962 311.544V631.715C157.962 639.548 164.335 645.921 172.168 645.921H627.829C635.662 645.921 642.035 639.548 642.035 631.715V311.544H157.962ZM642.996 270.426H157.003V218.254C157.003 209.892 163.806 203.089 172.168 203.089H230.079V227.031C230.079 238.102 239.087 247.11 250.158 247.11C261.23 247.11 270.238 238.102 270.238 227.031V203.088H529.758V227.03C529.758 238.101 538.766 247.109 549.838 247.109C560.909 247.109 569.917 238.101 569.917 227.03V203.088H627.829C636.192 203.088 642.995 209.891 642.995 218.253L642.996 270.426ZM157.962 269.467H642.035V218.254C642.035 210.421 635.662 204.049 627.829 204.049H570.877V227.031C570.877 238.631 561.439 248.07 549.838 248.07C538.236 248.07 528.798 238.632 528.798 227.031V204.048H271.198V227.03C271.198 238.63 261.76 248.069 250.159 248.069C238.558 248.069 229.12 238.631 229.12 227.03V204.048H172.169C164.336 204.048 157.963 210.42 157.963 218.253L157.962 269.467Z" fill="white"/>
<path d="M393.146 625.037H411.086C441.857 625.037 466.891 600.003 466.891 569.233V551.292C466.891 520.523 441.857 495.488 411.086 495.488H393.146C362.376 495.488 337.342 520.523 337.342 551.292V569.233C337.342 600.003 362.375 625.037 393.146 625.037ZM378.461 551.292C378.461 543.195 385.049 536.607 393.146 536.607H411.086C419.185 536.607 425.772 543.195 425.772 551.292V569.233C425.772 577.331 419.185 583.918 411.086 583.918H393.146C385.049 583.918 378.461 577.331 378.461 569.233V551.292Z" fill="white"/>
<path d="M411.085 625.517H393.145C362.11 625.517 336.861 600.267 336.861 569.233V551.293C336.861 520.258 362.11 495.009 393.145 495.009H411.085C442.121 495.009 467.37 520.258 467.37 551.293V569.233C467.37 600.267 442.121 625.517 411.085 625.517ZM393.146 495.968C362.64 495.968 337.822 520.787 337.822 551.293V569.233C337.822 599.738 362.64 624.557 393.146 624.557H411.086C441.592 624.557 466.411 599.739 466.411 569.233V551.293C466.411 520.787 441.593 495.968 411.086 495.968H393.146ZM411.085 584.398H393.145C384.783 584.398 377.98 577.595 377.98 569.233V551.293C377.98 542.931 384.783 536.127 393.145 536.127H411.085C419.448 536.127 426.252 542.931 426.252 551.293V569.233C426.252 577.595 419.448 584.398 411.085 584.398ZM393.146 537.087C385.313 537.087 378.941 543.46 378.941 551.293V569.233C378.941 577.065 385.313 583.438 393.146 583.438H411.086C418.919 583.438 425.293 577.065 425.293 569.233V551.293C425.293 543.46 418.919 537.087 411.086 537.087H393.146Z" fill="white"/>
<path d="M232.974 625.037H250.914C281.685 625.037 306.718 600.003 306.718 569.233V551.292C306.718 520.523 281.684 495.488 250.914 495.488H232.974C202.203 495.488 177.17 520.523 177.17 551.292V569.233C177.17 600.003 202.203 625.037 232.974 625.037ZM218.288 551.292C218.288 543.195 224.876 536.607 232.973 536.607H250.913C259.011 536.607 265.598 543.195 265.598 551.292V569.233C265.598 577.331 259.011 583.918 250.913 583.918H232.973C224.875 583.918 218.288 577.331 218.288 569.233V551.292Z" fill="white"/>
<path d="M250.913 625.517H232.973C201.939 625.517 176.689 600.267 176.689 569.233V551.293C176.689 520.258 201.939 495.009 232.973 495.009H250.913C281.948 495.009 307.197 520.258 307.197 551.293V569.233C307.197 600.267 281.948 625.517 250.913 625.517ZM232.973 495.968C202.467 495.968 177.649 520.787 177.649 551.293V569.233C177.649 599.738 202.467 624.557 232.973 624.557H250.913C281.42 624.557 306.238 599.739 306.238 569.233V551.293C306.238 520.787 281.42 495.968 250.913 495.968H232.973ZM250.913 584.398H232.973C224.611 584.398 217.808 577.595 217.808 569.233V551.293C217.808 542.931 224.611 536.127 232.973 536.127H250.913C259.275 536.127 266.079 542.931 266.079 551.293V569.233C266.078 577.595 259.275 584.398 250.913 584.398ZM232.973 537.087C225.14 537.087 218.768 543.46 218.768 551.293V569.233C218.768 577.065 225.14 583.438 232.973 583.438H250.913C258.747 583.438 265.119 577.065 265.119 569.233V551.293C265.119 543.46 258.747 537.087 250.913 537.087H232.973Z" fill="white"/>
<path d="M552.457 625.037H570.397C601.166 625.037 626.201 600.003 626.201 569.233V551.292C626.201 520.523 601.166 495.488 570.397 495.488H552.457C521.686 495.488 496.652 520.523 496.652 551.292V569.233C496.652 600.003 521.686 625.037 552.457 625.037ZM537.771 551.292C537.771 543.195 544.358 536.607 552.457 536.607H570.397C578.494 536.607 585.082 543.195 585.082 551.292V569.233C585.082 577.331 578.494 583.918 570.397 583.918H552.457C544.358 583.918 537.771 577.331 537.771 569.233V551.292Z" fill="white"/>
<path d="M570.397 625.517H552.457C521.421 625.517 496.172 600.267 496.172 569.233V551.293C496.172 520.258 521.421 495.009 552.457 495.009H570.397C601.431 495.009 626.68 520.258 626.68 551.293V569.233C626.68 600.267 601.431 625.517 570.397 625.517ZM552.457 495.968C521.951 495.968 497.132 520.787 497.132 551.293V569.233C497.132 599.738 521.95 624.557 552.457 624.557H570.397C600.902 624.557 625.72 599.739 625.72 569.233V551.293C625.72 520.787 600.903 495.968 570.397 495.968H552.457ZM570.397 584.398H552.457C544.094 584.398 537.291 577.595 537.291 569.233V551.293C537.291 542.931 544.094 536.127 552.457 536.127H570.397C578.759 536.127 585.561 542.931 585.561 551.293V569.233C585.561 577.595 578.759 584.398 570.397 584.398ZM552.457 537.087C544.624 537.087 538.25 543.46 538.25 551.293V569.233C538.25 577.065 544.624 583.438 552.457 583.438H570.397C578.229 583.438 584.601 577.065 584.601 569.233V551.293C584.601 543.46 578.229 537.087 570.397 537.087H552.457Z" fill="white"/>
<path d="M393.146 464.967H411.086C441.857 464.967 466.891 439.933 466.891 409.163V391.223C466.891 360.452 441.857 335.419 411.086 335.419H393.146C362.376 335.419 337.342 360.453 337.342 391.223V409.163C337.342 439.933 362.375 464.967 393.146 464.967ZM378.461 391.223C378.461 383.125 385.049 376.538 393.146 376.538H411.086C419.185 376.538 425.772 383.125 425.772 391.223V409.163C425.772 417.261 419.185 423.848 411.086 423.848H393.146C385.049 423.848 378.461 417.261 378.461 409.163V391.223Z" fill="white"/>
<path d="M411.085 465.447H393.145C362.11 465.447 336.861 440.198 336.861 409.163V391.223C336.861 360.188 362.11 334.939 393.145 334.939H411.085C442.121 334.939 467.37 360.188 467.37 391.223V409.163C467.37 440.199 442.121 465.447 411.085 465.447ZM393.146 335.899C362.64 335.899 337.822 360.717 337.822 391.223V409.163C337.822 439.668 362.64 464.487 393.146 464.487H411.086C441.592 464.487 466.411 439.669 466.411 409.163V391.223C466.411 360.717 441.593 335.899 411.086 335.899H393.146ZM411.085 424.328H393.145C384.783 424.328 377.98 417.525 377.98 409.163V391.223C377.98 382.861 384.783 376.058 393.145 376.058H411.085C419.448 376.058 426.252 382.861 426.252 391.223V409.163C426.252 417.525 419.448 424.328 411.085 424.328ZM393.146 377.018C385.313 377.018 378.941 383.39 378.941 391.223V409.163C378.941 416.995 385.313 423.368 393.146 423.368H411.086C418.919 423.368 425.293 416.995 425.293 409.163V391.223C425.293 383.39 418.919 377.018 411.086 377.018H393.146Z" fill="white"/>
<path d="M552.457 464.967H570.397C601.166 464.967 626.201 439.933 626.201 409.163V391.223C626.201 360.452 601.166 335.419 570.397 335.419H552.457C521.686 335.419 496.652 360.453 496.652 391.223V409.163C496.652 439.933 521.686 464.967 552.457 464.967ZM537.771 391.223C537.771 383.125 544.358 376.538 552.457 376.538H570.397C578.494 376.538 585.082 383.125 585.082 391.223V409.163C585.082 417.261 578.494 423.848 570.397 423.848H552.457C544.358 423.848 537.771 417.261 537.771 409.163V391.223Z" fill="white"/>
<path d="M570.397 465.447H552.457C521.421 465.447 496.172 440.198 496.172 409.163V391.223C496.172 360.188 521.421 334.939 552.457 334.939H570.397C601.431 334.939 626.68 360.188 626.68 391.223V409.163C626.68 440.199 601.431 465.447 570.397 465.447ZM552.457 335.899C521.951 335.899 497.132 360.717 497.132 391.223V409.163C497.132 439.668 521.95 464.487 552.457 464.487H570.397C600.902 464.487 625.72 439.669 625.72 409.163V391.223C625.72 360.717 600.903 335.899 570.397 335.899H552.457ZM570.397 424.328H552.457C544.094 424.328 537.291 417.525 537.291 409.163V391.223C537.291 382.861 544.094 376.058 552.457 376.058H570.397C578.759 376.058 585.561 382.861 585.561 391.223V409.163C585.561 417.525 578.759 424.328 570.397 424.328ZM552.457 377.018C544.624 377.018 538.25 383.39 538.25 391.223V409.163C538.25 416.995 544.624 423.368 552.457 423.368H570.397C578.229 423.368 584.601 416.995 584.601 409.163V391.223C584.601 383.39 578.229 377.018 570.397 377.018H552.457Z" fill="white"/>
</svg>
