<svg width="2788" height="519" viewBox="0 0 2788 519" fill="none" xmlns="http://www.w3.org/2000/svg">
<path d="M702.952 441.202L752.541 382.954H1081.56V441.202H702.952Z" fill="#303246"/>
<path d="M686.384 294.861L723.475 235.731H1034.18L1009.45 294.861H686.384Z" fill="#303246"/>
<path d="M773.384 152.412L728.475 93.2816H1109.18L1074.45 152.412H773.384Z" fill="#303246"/>
<rect x="1929.31" y="93.3865" width="54" height="345.523" fill="#303246"/>
<circle cx="1956.31" cy="27.7208" r="27" fill="#303246"/>
<path d="M1181.76 88.533V440.32H1233.64V204.239L1487.36 452.773V92.6839H1435.48V328.246L1181.76 88.533Z" fill="#303246"/>
<path d="M1706.13 453.349L1552.1 92.7358H1613.59L1706.13 326.776L1805.24 92.7358H1864.35L1706.13 453.349Z" fill="#303246"/>
<path d="M2616.89 81.8895L2443.88 442.555H2508.06L2552.14 349.159H2640.73L2655.9 301.387H2570.87L2616.89 189.322L2725.71 442.555H2787.1L2616.89 81.8895Z" fill="#303246" stroke="black"/>
<path d="M2294.11 387.841C2319.28 381.295 2341.79 367.111 2358.56 347.24L2373.31 413.493C2345.91 434.109 2313.3 446.676 2279.15 449.781C2245 452.886 2210.66 446.406 2179.99 431.07C2149.32 415.735 2123.54 392.15 2105.53 362.966C2087.52 333.783 2078.01 300.156 2078.07 265.865C2078.12 231.574 2087.73 197.977 2105.83 168.849C2123.92 139.721 2149.78 116.215 2180.5 100.974C2211.22 85.7317 2245.57 79.3576 2279.72 82.5673C2313.86 85.7769 2346.42 98.4432 2373.76 119.143L2361.86 189.145C2345.94 168.591 2324.04 153.477 2299.17 145.885C2274.31 138.293 2247.7 138.596 2223.01 146.752C2198.32 154.908 2176.77 170.516 2161.32 191.427C2145.87 212.338 2137.28 237.524 2136.74 263.518C2136.2 289.512 2143.72 315.036 2158.29 336.575C2172.85 358.114 2193.73 374.609 2218.05 383.79C2242.38 392.971 2268.95 394.386 2294.11 387.841Z" fill="#303246"/>
<path d="M55.1351 435.632C-51.7702 307.572 33.7053 157.047 33.7053 157.047C33.7053 157.047 -19.6306 286.342 96.5653 415.631C212.761 544.919 365.149 487.062 365.149 487.062C365.149 487.062 178.456 583.355 55.1351 435.632Z" fill="#303246" stroke="black"/>
<path d="M483.728 298.482C483.728 298.482 456.581 547.065 200.857 419.916C121.015 380.218 82.2788 298.482 66.5636 217.05C33.1081 43.6923 225.145 41.3279 225.145 41.3279C225.145 41.3279 45.1344 75.6151 175.14 298.482C221.796 378.464 320.766 399.559 369.435 395.63C456.381 388.611 483.728 298.482 483.728 298.482Z" fill="#303246" stroke="black"/>
<path d="M237.379 79.2086C331.23 5.01595 437.128 148.329 437.128 148.329L321.084 235.204C321.14 235.251 367.008 273.375 408.593 255.496C450.173 237.618 454.245 180.119 454.251 180.035C454.264 180.178 463.177 277.185 421.91 308.128C380.612 339.095 292.989 305.657 260.842 275.788C228.696 245.918 143.529 153.401 237.379 79.2086ZM378.154 122.329C378.027 122.206 331.8 77.3436 286.839 104.574C241.817 131.841 281.766 188.279 281.766 188.279L378.154 122.329Z" fill="#303246"/>
</svg>
