<svg width="801" height="801" viewBox="0 0 801 801" fill="none" xmlns="http://www.w3.org/2000/svg">
<path d="M504.971 268.807V263.8C504.971 251.689 495.118 241.833 483.008 241.833H452.973V212.698C479.021 195.061 494.534 165.911 494.534 134.46C494.534 82.381 452.166 40.01 400.087 40.01C348.011 40.01 305.643 82.381 305.643 134.46C305.643 165.911 321.155 195.063 347.203 212.698V241.833H317.169C305.059 241.833 295.206 251.689 295.206 263.8V268.807H69.3135V760.164H730.867V268.807H504.971ZM400.086 103.505C417.157 103.505 431.048 117.39 431.048 134.459C431.048 151.533 417.157 165.417 400.086 165.417C383.014 165.417 369.126 151.531 369.126 134.459C369.126 117.39 383.014 103.505 400.086 103.505ZM504.971 340.258V317.358H682.312V711.611H117.859V317.358H295.203V340.258H504.971Z" fill="white"/>
<path d="M614.906 614.279C612.858 603.01 605.422 593.432 594.927 588.616L553.05 571.504C546.861 568.66 542.861 562.424 542.861 555.61V549.435C542.861 546.749 543.305 544.106 543.857 542.189C544.951 540.726 570.699 505.983 570.699 473.14C570.699 433.199 545.367 404.205 510.465 404.205C475.563 404.205 450.231 433.198 450.231 473.14C450.231 505.983 475.981 540.726 476.754 541.577C477.628 544.106 478.069 546.753 478.069 549.434V555.609C478.069 562.424 474.071 568.659 467.97 571.465L425.916 588.653C415.509 593.431 408.072 603.008 405.996 614.501L403.654 644.728H617.276L614.906 614.279Z" fill="white"/>
<path d="M402.321 420.218H185.592V469.929H402.321V420.218Z" fill="white"/>
<path d="M353.605 510.688H185.592V560.397H353.605V510.688Z" fill="white"/>
<path d="M353.605 601.157H185.592V650.873H353.605V601.157Z" fill="white"/>
</svg>
