<svg width="800" height="800" viewBox="0 0 800 800" fill="none" xmlns="http://www.w3.org/2000/svg">
<path d="M421.614 204.158C488.933 134.216 558.89 128.456 610.441 152.021C663.884 176.449 703.333 234.745 703.333 304.57C703.333 376.256 674.063 431.582 631.651 479.339C589.569 526.726 536.929 564.326 487.479 603.052L482.703 606.804C465.123 620.663 449.75 632.573 435.023 641.178C420.287 649.788 409.05 653.333 399.999 653.333C390.948 653.333 379.711 649.788 364.976 641.178C350.249 632.573 334.877 620.663 317.297 606.804H317.296C266.478 566.742 211.788 528.254 168.348 479.339C125.936 431.582 96.6661 376.256 96.666 304.57C96.666 234.745 136.114 176.449 189.557 152.021C241.108 128.456 311.065 134.216 378.385 204.158L399.999 226.615L421.614 204.158Z" stroke="url(#paint0_linear_189_62)" stroke-width="60"/>
<defs>
<linearGradient id="paint0_linear_189_62" x1="66.666" y1="396.415" x2="733.333" y2="396.415" gradientUnits="userSpaceOnUse">
<stop stop-color="#2954B7"/>
<stop offset="1" stop-color="#DB403F"/>
</linearGradient>
</defs>
</svg>
