<svg width="800" height="800" viewBox="0 0 800 800" fill="none" xmlns="http://www.w3.org/2000/svg">
<path fill-rule="evenodd" clip-rule="evenodd" d="M400 91.6666C376.987 91.6666 358.334 110.321 358.334 133.333C358.334 156.345 376.987 175 400 175C423.014 175 441.667 156.345 441.667 133.333C441.667 110.321 423.014 91.6666 400 91.6666ZM308.334 133.333C308.334 82.7073 349.374 41.6666 400 41.6666C450.627 41.6666 491.667 82.7073 491.667 133.333C491.667 183.959 450.627 225 400 225C349.374 225 308.334 183.959 308.334 133.333ZM566.314 238.794C613.674 228.645 658.334 264.749 658.334 313.184C658.334 345.93 637.38 375.003 606.314 385.36L533.804 409.53C529.234 411.053 526.5 411.97 524.474 412.737C523.19 413.22 522.65 413.48 522.52 413.543C519.784 415.273 518.294 418.427 518.7 421.637C518.734 421.78 518.877 422.363 519.317 423.66C520.014 425.713 521.044 428.407 522.774 432.9L564.334 540.957C583.004 589.497 547.174 641.667 495.164 641.667C468.57 641.667 444.017 627.417 430.82 604.327L400 550.39L369.18 604.327C355.984 627.417 331.429 641.667 304.836 641.667C252.828 641.667 216.998 589.497 235.668 540.957L277.227 432.9C278.957 428.407 279.987 425.713 280.684 423.66C281.125 422.363 281.268 421.78 281.301 421.637C281.707 418.427 280.218 415.273 277.481 413.543C277.351 413.48 276.812 413.22 275.528 412.737C273.501 411.97 270.767 411.053 266.198 409.53L193.688 385.36C162.621 375.003 141.667 345.93 141.667 313.184C141.667 264.749 186.327 228.645 233.687 238.794L296.939 252.348C300.489 253.109 302.148 253.464 303.785 253.802C367.257 266.932 432.744 266.932 496.217 253.802C497.854 253.464 499.51 253.109 503.06 252.348L566.314 238.794ZM608.334 313.184C608.334 296.581 593.024 284.205 576.79 287.684L513.447 301.258C510.02 301.992 508.177 302.387 506.344 302.766C436.19 317.277 363.81 317.277 293.657 302.766C291.824 302.387 289.983 301.992 286.563 301.26L223.211 287.684C206.976 284.205 191.667 296.581 191.667 313.184C191.667 324.409 198.85 334.377 209.499 337.927L282.009 362.097C282.613 362.297 283.221 362.497 283.83 362.7C290.683 364.97 297.803 367.33 303.674 370.953C323.31 383.073 333.954 405.633 330.829 428.493C329.894 435.33 327.189 442.327 324.586 449.06C324.354 449.66 324.123 450.257 323.895 450.85L282.335 558.907C276.262 574.697 287.917 591.667 304.836 591.667C313.487 591.667 321.474 587.03 325.767 579.52L378.294 487.597C382.744 479.807 391.03 475 400 475C408.97 475 417.257 479.807 421.707 487.597L474.234 579.52C478.527 587.03 486.514 591.667 495.164 591.667C512.084 591.667 523.74 574.697 517.667 558.907L476.107 450.85C475.877 450.257 475.647 449.66 475.414 449.06C472.81 442.327 470.107 435.33 469.17 428.493C466.047 405.633 476.69 383.073 496.327 370.953C502.197 367.33 509.317 364.97 516.17 362.7C516.78 362.497 517.387 362.297 517.99 362.097L590.5 337.927C601.15 334.377 608.334 324.409 608.334 313.184ZM173.88 472.103C180.082 484.44 175.11 499.467 162.774 505.67C112.077 531.16 91.667 559.83 91.667 583.333C91.667 608.79 115.801 640.16 174.557 666.6C230.967 691.987 310.651 708.333 400 708.333C489.35 708.333 569.034 691.987 625.444 666.6C684.2 640.16 708.334 608.79 708.334 583.333C708.334 559.83 687.924 531.16 637.227 505.67C624.89 499.467 619.917 484.44 626.12 472.103C632.324 459.767 647.35 454.797 659.687 460.997C714.554 488.583 758.334 530 758.334 583.333C758.334 640.72 707.847 684.35 645.96 712.197C581.727 741.103 494.747 758.333 400 758.333C305.255 758.333 218.272 741.103 154.039 712.197C92.1527 684.35 41.667 640.72 41.667 583.333C41.667 530 85.447 488.583 140.314 460.997C152.65 454.797 167.678 459.767 173.88 472.103Z" fill="url(#paint0_linear_189_22)"/>
<defs>
<linearGradient id="paint0_linear_189_22" x1="41.667" y1="400" x2="758.334" y2="400" gradientUnits="userSpaceOnUse">
<stop stop-color="#2954B7"/>
<stop offset="1" stop-color="#DB403F"/>
</linearGradient>
</defs>
</svg>
