<svg width="800" height="800" viewBox="0 0 800 800" fill="none" xmlns="http://www.w3.org/2000/svg">
<g clip-path="url(#clip0_189_59)">
<path d="M146.665 83.3334C111.832 83.3334 83.332 111.833 83.332 146.667V558.333C83.332 593.167 111.832 621.667 146.665 621.667H336.665V653.333H209.999V716.667H589.999V653.333H463.332V621.667H653.332C688.165 621.667 716.665 593.167 716.665 558.333V146.667C716.665 111.833 688.165 83.3334 653.332 83.3334H146.665ZM146.665 146.667H653.332V558.333H146.665V146.667ZM399.999 178.333C365.165 178.333 336.665 206.833 336.665 241.667C336.665 276.5 365.165 305 399.999 305C434.832 305 463.332 276.5 463.332 241.667C463.332 206.833 434.832 178.333 399.999 178.333ZM336.665 336.667C301.832 336.667 273.332 365.167 273.332 400V431.667H526.665V400C526.665 365.167 498.165 336.667 463.332 336.667H336.665ZM178.332 463.333V526.667H304.999V463.333H178.332ZM336.665 463.333V526.667H463.332V463.333H336.665ZM494.999 463.333V526.667H621.665V463.333H494.999Z" fill="white"/>
</g>
<defs>
<clipPath id="clip0_189_59">
<rect width="800" height="800" fill="white"/>
</clipPath>
</defs>
</svg>
